<svg xmlns="http://www.w3.org/2000/svg" width="661.434" height="552" viewBox="0 0 661.434 552"><defs><style>.a,.b,.h,.j{fill:none;}.a,.b,.d,.e,.f,.g,.h{stroke:#1c51ff;stroke-linejoin:round;stroke-width:2px;}.a,.f,.g{fill-rule:evenodd;}.b,.d,.e{stroke-linecap:round;}.c{fill:#1c51ff;}.d,.g{fill:#dee7ff;}.e,.f{fill:#f5f8ff;}.i{stroke:none;}</style></defs><g transform="translate(-4815.103 -6088.248)"><path class="a" d="M4924.37,6257.492a206.993,206.993,0,0,0-4.633,43.666q0,5.7.308,11.332a206.254,206.254,0,0,0,344.79,141.184" transform="translate(38.863 63.089)"></path><path class="a" d="M4876.153,6246.1a275.081,275.081,0,0,0,415.784,291.654" transform="translate(20.113 58.82)"></path><path class="a" d="M5287.919,6153.166a275.09,275.09,0,0,0-329.934-17.017" transform="translate(53.205)"></path><path class="a" d="M5266.99,6365.184a277.262,277.262,0,0,0-4.824-130.636" transform="translate(167.272 54.486)"></path><g transform="translate(5109.85 6309.247)"><g class="b"><rect class="i" width="110" height="110" rx="5"></rect><rect class="j" x="1" y="1" width="108" height="108" rx="4"></rect></g><path class="c" d="M5089.8,6308.542v-42.41a.885.885,0,0,0-.883-.884h-24.74a.884.884,0,0,0-.883.884v42.41a.884.884,0,0,1-.884.884h-9.929a.883.883,0,0,0-.566,1.562l24.066,20.056a.886.886,0,0,0,1.131,0l24.065-20.056a.883.883,0,0,0-.564-1.562h-9.929A.884.884,0,0,1,5089.8,6308.542Z" transform="translate(-5021.542 -6243.247)"></path></g><g transform="translate(5335.715 6156.176)"><g transform="translate(45.614)"><path class="d" d="M5319.656,6191.871v-15.415a1.186,1.186,0,0,0-1.186-1.185h-9.708a1.178,1.178,0,0,1-1.131-.867,35.417,35.417,0,0,0-3.128-7.526,1.178,1.178,0,0,1,.188-1.413l6.873-6.874a1.185,1.185,0,0,0,0-1.676l-10.9-10.9a1.186,1.186,0,0,0-1.678,0l-6.873,6.872a1.178,1.178,0,0,1-1.414.188,35.3,35.3,0,0,0-7.525-3.128,1.181,1.181,0,0,1-.866-1.131v-9.709a1.186,1.186,0,0,0-1.187-1.187H5265.71a1.186,1.186,0,0,0-1.186,1.187v9.709a1.181,1.181,0,0,1-.867,1.131,35.311,35.311,0,0,0-7.525,3.128,1.179,1.179,0,0,1-1.414-.188l-6.873-6.872a1.184,1.184,0,0,0-1.676,0l-10.9,10.9a1.187,1.187,0,0,0,0,1.676l6.873,6.874a1.177,1.177,0,0,1,.188,1.413,35.369,35.369,0,0,0-3.129,7.526,1.177,1.177,0,0,1-1.131.867h-9.708a1.186,1.186,0,0,0-1.186,1.185v15.415a1.186,1.186,0,0,0,1.186,1.185h9.708a1.177,1.177,0,0,1,1.131.866,35.367,35.367,0,0,0,3.129,7.527,1.176,1.176,0,0,1-.188,1.412l-6.873,6.873a1.189,1.189,0,0,0,0,1.678l10.9,10.9a1.185,1.185,0,0,0,1.676,0l6.873-6.873a1.18,1.18,0,0,1,1.414-.187,35.311,35.311,0,0,0,7.525,3.128,1.18,1.18,0,0,1,.867,1.131v9.708a1.186,1.186,0,0,0,1.186,1.187h15.413a1.186,1.186,0,0,0,1.187-1.187v-9.708a1.179,1.179,0,0,1,.866-1.131,35.3,35.3,0,0,0,7.525-3.128,1.179,1.179,0,0,1,1.414.187l6.873,6.873a1.187,1.187,0,0,0,1.678,0l10.9-10.9a1.187,1.187,0,0,0,0-1.678l-6.873-6.873a1.176,1.176,0,0,1-.188-1.412,35.414,35.414,0,0,0,3.128-7.527,1.178,1.178,0,0,1,1.131-.866h9.708A1.186,1.186,0,0,0,5319.656,6191.871Z" transform="translate(-5227.177 -6137.923)"></path><circle class="e" cx="17.784" cy="17.784" r="17.784" transform="translate(28.455 28.455)"></circle></g><path class="e" d="M5248.1,6206.985l-6.986-6.986a.761.761,0,0,0-1.076,0l-4.4,4.4a.756.756,0,0,1-.9.119,22.737,22.737,0,0,0-4.831-1.994.754.754,0,0,1-.554-.726v-6.23a.761.761,0,0,0-.761-.76h-9.88a.761.761,0,0,0-.76.76v6.23a.754.754,0,0,1-.554.726,22.694,22.694,0,0,0-4.83,1.994.758.758,0,0,1-.906-.119l-4.4-4.4a.759.759,0,0,0-1.074,0l-6.987,6.986a.761.761,0,0,0,0,1.075l4.4,4.4a.757.757,0,0,1,.122.906,22.53,22.53,0,0,0-1.994,4.829.758.758,0,0,1-.726.556h-6.23a.76.76,0,0,0-.761.76v9.88a.761.761,0,0,0,.761.76h6.23a.758.758,0,0,1,.726.556,22.575,22.575,0,0,0,1.994,4.829.755.755,0,0,1-.122.9l-4.4,4.4a.761.761,0,0,0,0,1.075l6.987,6.987a.759.759,0,0,0,1.074,0l4.4-4.4a.756.756,0,0,1,.906-.12,22.644,22.644,0,0,0,4.83,1.994.754.754,0,0,1,.554.724v6.231a.76.76,0,0,0,.76.76h9.88a.76.76,0,0,0,.761-.76V6247.1a.754.754,0,0,1,.554-.724,22.686,22.686,0,0,0,4.831-1.994.754.754,0,0,1,.9.12l4.4,4.4a.761.761,0,0,0,1.076,0l6.986-6.987a.763.763,0,0,0,0-1.075l-4.4-4.4a.75.75,0,0,1-.12-.9,22.646,22.646,0,0,0,1.993-4.829.757.757,0,0,1,.726-.556h6.23a.76.76,0,0,0,.759-.76v-9.88a.759.759,0,0,0-.759-.76h-6.23a.757.757,0,0,1-.726-.556,22.6,22.6,0,0,0-1.993-4.829.752.752,0,0,1,.12-.906l4.4-4.4A.762.762,0,0,0,5248.1,6206.985Z" transform="translate(-5194.003 -6116.591)"></path><circle class="e" cx="11.4" cy="11.4" r="11.4" transform="translate(18.241 96.459)"></circle></g><g transform="translate(5328.87 6443.428)"><path class="e" d="M0,0H141.667a5,5,0,0,1,5,5V83a5,5,0,0,1-5,5H5a5,5,0,0,1-5-5V0A0,0,0,0,1,0,0Z" transform="translate(0.001 22.001)"></path><path class="d" d="M5262.36,6354.167a7.333,7.333,0,0,0-7.334-7.333h-66v22H5323.38V6361.5a7.333,7.333,0,0,0-7.333-7.334Z" transform="translate(-5189.025 -6346.834)"></path><g transform="translate(22.001 58.667)"><line class="b" x2="102.667"></line><line class="b" x2="102.667" transform="translate(0.367 14.666)"></line></g></g><g transform="translate(4879.817 6432.161)"><path class="d" d="M4956.191,6351.139h-30.937a12.5,12.5,0,0,0-25,0h-31.562a6.251,6.251,0,0,0-6.25,6.25v112.5a6.251,6.251,0,0,0,6.25,6.251h87.5a6.252,6.252,0,0,0,6.251-6.251v-112.5A6.252,6.252,0,0,0,4956.191,6351.139Z" transform="translate(-4862.441 -6338.64)"></path><rect class="e" width="100" height="75" rx="5" transform="translate(87.501 24.999) rotate(90)"></rect><g transform="translate(25.079 47.499)"><path class="b" d="M4880.681,6376l1.875,4.688,6.562-7.5" transform="translate(-4880.681 -6373.185)"></path><line class="b" x2="35" transform="translate(14.844 3.437)"></line><g transform="translate(0.039 15.833)"><path class="b" d="M4880.708,6387.512l1.876,4.688,6.562-7.5" transform="translate(-4880.708 -6384.7)"></path><line class="b" x2="35" transform="translate(14.844 3.437)"></line></g><g transform="translate(0.039 31.667)"><path class="b" d="M4880.708,6399.027l1.876,4.687,6.562-7.5" transform="translate(-4880.708 -6396.215)"></path><line class="b" x2="35" transform="translate(14.844 3.437)"></line></g><g transform="translate(0.039 47.5)"><path class="b" d="M4880.708,6410.543l1.876,4.688,6.562-7.5" transform="translate(-4880.708 -6407.73)"></path><line class="b" x2="35" transform="translate(14.844 3.437)"></line></g></g></g><g transform="translate(4816.103 6172.765)"><path class="f" d="M4988.5,6171.984v83.606a4.4,4.4,0,0,1-4.4,4.4H4951.1a11,11,0,1,0-17.607,0H4900.5a4.4,4.4,0,0,1-4.4-4.4v-33a11,11,0,1,0,0-17.6v-33a4.395,4.395,0,0,1,4.4-4.4H4933.5a11,11,0,1,1,17.607,0H4984.1A4.394,4.394,0,0,1,4988.5,6171.984Z" transform="translate(-4786.104 -6149.988)"></path><path class="g" d="M4943.7,6213.788a11,11,0,0,1-17.6,8.8v33a4.409,4.409,0,0,1-4.4,4.4H4838.1a4.409,4.409,0,0,1-4.4-4.4v-33a11,11,0,1,1,0-17.6v-33a4.4,4.4,0,0,1,4.4-4.4h33a11,11,0,1,1,17.6,0h33a4.4,4.4,0,0,1,4.4,4.4v33a11,11,0,0,1,17.6,8.8Z" transform="translate(-4816.104 -6149.988)"></path></g><path class="a" d="M5228.076,6213.323a205.816,205.816,0,0,0-158.339-74.075" transform="translate(95.113 18.75)"></path><circle class="h" cx="137.5" cy="137.5" r="137.5" transform="translate(5027.35 6226.747)"></circle></g></svg>