<svg xmlns="http://www.w3.org/2000/svg" xmlns:xlink="http://www.w3.org/1999/xlink" width="830" height="525" viewBox="0 0 830 525"><defs><style>.a,.c,.j,.k{fill:#fff;}.a{mix-blend-mode:multiply;isolation:isolate;}.b,.d,.g,.h,.i{fill:#1c51ff;}.b{opacity:0.1;}.e,.m,.o{fill:none;}.e,.i,.m{stroke:#1c51ff;}.e{stroke-width:2px;}.f{fill:#add12e;}.g,.j{opacity:0.5;}.h,.k,.l{opacity:0.2;}.m{stroke-miterlimit:10;stroke-width:1.372px;}.n{stroke:none;}.p{filter:url(#c);}.q{filter:url(#a);}</style><filter id="a" x="242.5" y="0" width="345" height="525" filterUnits="userSpaceOnUse"><feGaussianBlur stdDeviation="2.5"></feGaussianBlur></filter><filter id="c" x="292" y="447.5" width="247" height="42" filterUnits="userSpaceOnUse"><feGaussianBlur></feGaussianBlur></filter></defs><g transform="translate(-545 -1557.5)"><g transform="translate(420 120)"><g transform="translate(-2140.51 185.564)"><path class="a" d="M2742.37,1568.11a25.019,25.019,0,0,0-16.98,3.62l-48.01-41.76-14-12.16v-.01h-.01l-24.08-20.94-10.52-9.15-42.86-37.26,64.04-70.74-17-27.29v-.01l9.36-11.45,17.08,28.32,7.48,12.4-9.29,10.26-51.9,57.32,32.14,27.94,25.55,22.22,14.01,12.18Z"></path><path class="b" d="M2745.53,1589.24l-6.37,14.42-8.75,19.82-.43.97-5.95,13.47-46.65-75.4v-32.55l48.01,41.76,12.21,10.61Z"></path><path class="b" d="M2830.51,1645.83l-76.98,39.75-20.65-33.37,7.73-17.51,1.55-3.49,20.19-45.73-19.98-17.37-64.99-56.51v-91.42l135.86,99.49Z"></path><path class="b" d="M2845.508,1439.016v76.71l-158.48-108.16,106.62-7.96,14.78,36.78Z"></path><path class="b" d="M2719.168,1769.436h-38.49l-27.96-59.46-54.52,19.31-14.82-63.35,88.8-78.58,43.07,70.45-24.62,55.72Z"></path><path class="b" d="M2663.38,1517.8v51.6l-93.76,76.43-54.11-3.33V1530.61l54.5,30.81,69.28-64.56,24.08,20.94Z"></path><path class="b" d="M2663.37,1401.24v98.18l-25.55-22.22-32.14-27.94,51.9-57.32Z"></path><path class="b" d="M2585.91,1450.45l42.86,37.26-60.78,56.64-52.48-29.67V1269.44a10,10,0,0,1,10-10H2575l57.95,92.97v.01l17,27.29Z"></path><path class="b" d="M2755.168,1302.336l-47.03,13.11-9.74,10.76-35.55-40.62,28.41-26.15h50.49Z"></path><path class="b" d="M2675.6,1396.143l111.791-12.105-27.566-68.606-44.107,12.295-48.846,53.949Z"></path><path class="b" d="M2689.028,1336.546l-29.63,32.73-17.09-28.32-3.27-5.43-28.07-46.52-17.84-29.57h77.65l-20.43,18.8-6.84,6.3,15.69,17.92Z"></path><path class="b" d="M2845.51,1269.44v85.45l-9.91,23.93-33.89,3.67-31.25-77.73-14.18-45.32h79.23a10,10,0,0,1,9.75,7.77A10.235,10.235,0,0,1,2845.51,1269.44Z"></path><path class="c" d="M2845.51,1269.44v50.62c-6.33,6.01-15.94,9.65-23.73,10.15-9.49.62-17.94-4.89-22.6-12.97-2.55-4.44-4.64-9.28-6.91-13.73-2.5-4.88-5.59-9.35-7.91-14.51-3.27-7.29-4.79-18.66,1.63-24.48a25.534,25.534,0,0,1,8.19-5.08h38.98a34.452,34.452,0,0,1,12.1,7.77A10.235,10.235,0,0,1,2845.51,1269.44Z"></path><path class="d" d="M2654.437,1313.016a25.121,25.121,0,1,0-39.828-.015l19.919,29.114Z"></path><path class="c" d="M2645.228,1297.736a10.7,10.7,0,1,1-10.7-10.7A10.7,10.7,0,0,1,2645.228,1297.736Z"></path><path class="d" d="M2763.93,1592.97a24.986,24.986,0,0,1-5.22,15.28l-15.97,23.34-2.13,3.11-1.81,2.65-8.82-12.9-1.55-2.27-3.17-4.64-6.37-9.31a24.96,24.96,0,0,1-5.21-15.26c0-.84.04-1.66.12-2.48a25.127,25.127,0,0,1,25-22.64,24.793,24.793,0,0,1,3.57.26A25.1,25.1,0,0,1,2763.93,1592.97Z"></path><path class="c" d="M2749.5,1592.969a10.7,10.7,0,1,1-10.7-10.7A10.7,10.7,0,0,1,2749.5,1592.969Z"></path><path class="b" d="M2845.51,1673.53v85.91a10,10,0,0,1-10,10h-41.25l-35.15-67.46,73.13-40.51Z"></path><path class="b" d="M2580.77,1769.44h-55.26a10,10,0,0,1-10-10v-49.67l51.57,9.2Z"></path></g><g class="q" transform="matrix(1, 0, 0, 1, 125, 1437.5)"><g class="e" transform="translate(250 7.5)"><rect class="n" width="330" height="510" rx="10"></rect><rect class="o" x="1" y="1" width="328" height="508" rx="9"></rect></g></g><g transform="translate(0 4)"><g class="p" transform="matrix(1, 0, 0, 1, 125, 1433.5)"><rect class="f" width="247" height="40" rx="5" transform="translate(292 447.5)"></rect></g><rect class="c" width="150" height="10" rx="5" transform="translate(466 1896)"></rect></g></g><path class="b" d="M0,0H240a10,10,0,0,1,10,10V300a0,0,0,0,1,0,0H0a0,0,0,0,1,0,0V0A0,0,0,0,1,0,0Z" transform="translate(1125 1620)"></path><path class="d" d="M46.059,12V57.4a14.2,14.2,0,0,0-8.352-2.643c-7.237,0-13.125,5.174-13.125,11.534S30.47,77.821,37.707,77.821s13.125-5.174,13.125-11.534V26.877l38.977-9.643V46.573a14.2,14.2,0,0,0-8.352-2.643c-7.237,0-13.125,5.174-13.125,11.534S74.22,67,81.457,67s13.125-5.174,13.125-11.534V0Z" transform="translate(1190.418 1706)"></path><g transform="translate(-25 -11)"><rect class="d" width="150" height="10" rx="5" transform="translate(1200 1874)"></rect><rect class="g" width="70" height="10" rx="5" transform="translate(1240 1891)"></rect></g><path class="h" d="M0,0H250a0,0,0,0,1,0,0V90a10,10,0,0,1-10,10H0a0,0,0,0,1,0,0V0A0,0,0,0,1,0,0Z" transform="translate(1125 1920)"></path><g transform="translate(0 1)"><rect class="g" width="150" height="5" rx="2.5" transform="translate(1175 1942)"></rect><path class="d" d="M2.5,0H50a0,0,0,0,1,0,0V5a0,0,0,0,1,0,0H2.5A2.5,2.5,0,0,1,0,2.5v0A2.5,2.5,0,0,1,2.5,0Z" transform="translate(1175 1942)"></path><g transform="translate(-25)"><g transform="translate(1260 1967)"><path class="d" d="M15,30A15,15,0,1,1,30,15,14.985,14.985,0,0,1,15,30ZM15,2.492A12.508,12.508,0,1,0,27.508,15,12.526,12.526,0,0,0,15,2.492Z"></path><g transform="translate(9.9 5.378)"><path class="d" d="M161.7,105.831V89.1a1.276,1.276,0,0,1,2.045-1.022l10.341,8.363a1.248,1.248,0,0,1,0,1.916l-10.408,8.492A1.227,1.227,0,0,1,161.7,105.831Zm2.492-14.106v11.492l7.084-5.749Z" transform="translate(-161.7 -87.846)"></path></g></g><g transform="translate(1329.875 1972)"><g transform="translate(0.125)"><g transform="translate(0)"><g transform="translate(4.882 0.035)"><path class="i" d="M118.191,20.02V1.667a.815.815,0,0,1,1.274-.678l13.465,9.176a.8.8,0,0,1,0,1.361L119.465,20.7A.816.816,0,0,1,118.191,20.02ZM119.85,3.239V18.4l11.174-7.564Z" transform="translate(-118.19 -0.855)"></path></g><path class="i" d="M.973,20.007a.849.849,0,0,1-.848-.848V.848a.848.848,0,1,1,1.7,0V19.155A.85.85,0,0,1,.973,20.007Z" transform="translate(-0.125)"></path></g></g></g><g transform="translate(1200 1972)"><g transform="translate(0)"><g transform="translate(0 0.035)"><path class="i" d="M133.306,20.02V1.667a.815.815,0,0,0-1.274-.678l-13.465,9.176a.8.8,0,0,0,0,1.361L132.032,20.7A.816.816,0,0,0,133.306,20.02ZM131.648,3.239V18.4L120.474,10.84Z" transform="translate(-118.19 -0.855)"></path></g><g transform="translate(18.304)"><path class="i" d="M.973,20.007a.849.849,0,0,0,.848-.848V.848a.848.848,0,1,0-1.7,0V19.155A.85.85,0,0,0,.973,20.007Z" transform="translate(-0.125)"></path></g></g></g></g></g><path class="b" d="M10,0H250a0,0,0,0,1,0,0V400a0,0,0,0,1,0,0H10A10,10,0,0,1,0,390V10A10,10,0,0,1,10,0Z" transform="translate(545 1620)"></path><g transform="translate(0 -14)"><rect class="d" width="192.096" height="117.034" rx="5" transform="translate(574 1673)"></rect><g transform="translate(-2513.984 49.711)"><circle class="j" cx="9.734" cy="9.734" r="9.734" transform="translate(3235.143 1638.619)"></circle><circle class="j" cx="9.734" cy="9.734" r="9.734" transform="translate(3244.876 1638.619)"></circle><rect class="k" width="106.54" height="5.496" rx="2.748" transform="translate(3104.632 1645.604)"></rect></g><g class="l" transform="translate(-2513.984 49.711)"><rect class="c" width="35.55" height="5.496" transform="translate(3104.632 1700.321)"></rect><rect class="c" width="35.55" height="5.496" transform="translate(3145.983 1700.321)"></rect><rect class="c" width="76.678" height="5.496" transform="translate(3187.665 1700.321)"></rect><rect class="c" width="63.197" height="5.496" transform="translate(3104.632 1715.767)"></rect><rect class="c" width="19.458" height="5.496" transform="translate(3173.265 1715.767)"></rect></g><rect class="k" width="32.94" height="21.421" rx="3.465" transform="translate(590.647 1714.494)"></rect><path class="m" d="M3121.173,1680.481h-19.567v-9.976h19.567a4.988,4.988,0,0,1,4.988,4.988h0A4.988,4.988,0,0,1,3121.173,1680.481Z" transform="translate(-2513.984 49.711)"></path><line class="m" x2="13.987" transform="translate(612.177 1725.204)"></line></g><rect class="b" width="90" height="25" transform="translate(574 1816)"></rect><rect class="b" width="40" height="25" transform="translate(574 1886)"></rect><rect class="b" width="40" height="25" transform="translate(624 1886)"></rect><rect class="b" width="40" height="25" transform="translate(726 1886)"></rect><rect class="b" width="192" height="25" transform="translate(574 1851)"></rect><rect class="b" width="90" height="25" transform="translate(676 1816)"></rect><g transform="translate(0 -5)"><rect class="d" width="70" height="30" rx="5" transform="translate(696 1956)"></rect><rect class="c" width="30" height="10" rx="5" transform="translate(716 1966)"></rect></g></g></svg>