<svg xmlns="http://www.w3.org/2000/svg" width="419.366" height="530.478" viewBox="0 0 419.366 530.478"><defs><style>.a,.b,.j{fill:#fff;}.a,.b,.d,.g,.l{stroke:#1c51ff;}.a,.d,.f,.g,.h,.l{stroke-linecap:round;}.a,.b,.d,.f,.g,.h,.l{stroke-linejoin:round;}.a,.b,.d,.f,.g,.h,.i,.j,.l{stroke-width:2px;}.c,.f,.g{fill:#dee7ff;}.d,.h{fill:none;}.e{fill:#1c51ff;}.f,.h{stroke:#698cff;}.i{fill:#fce29a;}.i,.j{stroke:#fec408;stroke-miterlimit:10;}.k{fill:#fec408;}.l{fill:#f5f8ff;}</style></defs><g transform="translate(-6791.31 -8507.335)"><rect class="a" width="350" height="220.37" rx="5" transform="translate(6842.639 8558.664)"></rect><rect class="a" width="64.815" height="64.815" transform="translate(6985.282 8779.035)"></rect><path class="a" d="M10,0H122.222a10,10,0,0,1,10,10v2.963a0,0,0,0,1,0,0H0a0,0,0,0,1,0,0V10A10,10,0,0,1,10,0Z" transform="translate(6951.578 8843.85)"></path><rect class="b" width="324.074" height="194.444" transform="translate(6855.602 8571.627)"></rect><rect class="c" width="194.444" height="90.741" transform="translate(6920.467 8597.554)"></rect><rect class="c" width="194.444" height="31.02" transform="translate(6920.467 8733.664)"></rect><path class="d" d="M7029.571,8699.075"></path><path class="d" d="M6920.467,8699.075"></path><rect class="e" width="129.63" height="6.481" transform="translate(6920.467 8696.127)"></rect><rect class="e" width="103.704" height="6.481" transform="translate(6920.467 8706.497)"></rect><path class="e" d="M7030.632,8640.071c-.013-.312-.026-.609-.052-.92a6.694,6.694,0,0,0-1.1-3.824,4.147,4.147,0,0,0-2.955-1.219c-1.361-.156-2.735-.246-4.109-.3-2.787-.1-5.574-.052-8.362.014-1.438.039-2.864.064-4.3.181-1.75.144-3.552.389-4.369,2.152-.726,1.568-.635,3.564-.648,5.25-.013,1.517-.013,3.034.052,4.55.078,1.97.194,4.537,2.307,5.393a12.143,12.143,0,0,0,3.721.648c1.283.078,2.566.064,3.85.091,2.7.038,5.392-.052,8.089-.1a18.5,18.5,0,0,0,5.587-.675c1.542-.531,1.944-2.2,2.151-3.655a30.431,30.431,0,0,0,.156-4.355C7030.645,8642.223,7030.671,8641.147,7030.632,8640.071Zm-15.568,6.766v-7.881c2.229,1.309,4.446,2.605,6.714,3.941C7019.523,8644.219,7017.306,8645.516,7015.064,8646.837Z"></path><line class="f" x2="147.847" transform="translate(6985.231 8996.708)"></line><line class="f" x2="147.847" transform="translate(6985.231 9012.666)"></line><line class="f" x2="147.847" transform="translate(6985.231 8980.75)"></line><line class="g" x1="201.664" transform="translate(6941.414 9036.813)"></line><path class="g" d="M6960.226,8996.813a40.013,40.013,0,0,0,40,40h-112a40,40,0,1,1,0-80h112A40,40,0,0,0,6960.226,8996.813Z"></path><line class="g" x1="82.814" transform="translate(6860.007 8991.813)"></line><line class="g" x1="47.998" transform="translate(6860.007 9001.813)"></line><line class="d" x2="181.664" transform="translate(6961.414 8956.813)"></line><line class="h" x2="116.04" transform="translate(7008.577 8881.813)"></line><line class="h" x2="116.04" transform="translate(7008.577 8891.813)"></line><line class="h" x2="116.04" transform="translate(7008.577 8871.813)"></line><path class="d" d="M7134.617,8906.813h-126.04a25,25,0,0,1,0-50h126.04"></path><path class="g" d="M6983.577,8881.813a25.009,25.009,0,0,0,25,25h-70a25,25,0,0,1,0-50h70A25,25,0,0,0,6983.577,8881.813Z"></path><circle class="d" cx="8.264" cy="8.264" r="8.264" transform="translate(6922.902 8873.549)"></circle><line class="d" x1="22.452" transform="translate(6949.852 8877.936)"></line><line class="d" x1="22.452" transform="translate(6949.852 8885.936)"></line><line class="h" x1="116.04" transform="translate(6903.577 8931.813)"></line><line class="h" x1="116.04" transform="translate(6903.577 8941.813)"></line><line class="h" x1="116.04" transform="translate(6903.577 8921.813)"></line><path class="d" d="M6893.577,8956.812l126.04,0a25,25,0,0,0,0-50l-126.04,0"></path><path class="g" d="M7044.617,8931.813a25.009,25.009,0,0,1-25,25h70a25,25,0,0,0,0-50h-70A25,25,0,0,1,7044.617,8931.813Z"></path><circle class="d" cx="8.264" cy="8.264" r="8.264" transform="translate(7088.764 8923.549)"></circle><line class="d" x2="22.452" transform="translate(7055.892 8927.936)"></line><line class="d" x2="22.452" transform="translate(7055.892 8935.936)"></line><path class="g" d="M7197.166,8754.544v39.011l-11.32-6.471v-26.01Z"></path><path class="g" d="M7173.136,8760.864v26.42l-10.97,6.271v-39.021Z"></path><path class="g" d="M7185.846,8761.074v26.01l-6.18-3.53-6.53,3.73v-26.42l4.04,2.33a5.017,5.017,0,0,0,5,0Z"></path><path class="i" d="M7209.676,8715.564v28.869a5.008,5.008,0,0,1-2.5,4.33l-10.01,5.78-11.32,6.53-3.67,2.12a5.017,5.017,0,0,1-5,0l-4.04-2.33-10.97-6.33-9.99-5.771a5.009,5.009,0,0,1-2.5-4.33v-28.869a4.985,4.985,0,0,1,2.5-4.33l25-14.44a5.017,5.017,0,0,1,5,0l25,14.44A4.984,4.984,0,0,1,7209.676,8715.564Z"></path><circle class="j" cx="22.5" cy="22.5" r="22.5" transform="translate(7157.175 8707.496)"></circle><path class="k" d="M7180.4,8720.525l1.949,6a.764.764,0,0,0,.727.527h6.3a.765.765,0,0,1,.45,1.384l-5.1,3.706a.765.765,0,0,0-.278.855l1.948,6a.764.764,0,0,1-1.177.854l-5.1-3.706a.766.766,0,0,0-.9,0l-5.1,3.706a.765.765,0,0,1-1.177-.854l1.949-6a.766.766,0,0,0-.278-.855l-5.1-3.706a.765.765,0,0,1,.449-1.384h6.305a.765.765,0,0,0,.728-.527l1.948-6A.765.765,0,0,1,7180.4,8720.525Z"></path><path class="l" d="M6801.423,8581.256l25.705,25.706c5.209,5.208,23.715-4.853,41.335-22.473s27.682-36.126,22.473-41.335l-25.705-25.705Z"></path><path class="g" d="M6874.344,8508.335l-57.424,24.61-24.61,57.424,57.424-24.609Z"></path></g></svg>