<svg xmlns="http://www.w3.org/2000/svg" width="471.414" height="355.11" viewBox="0 0 471.414 355.11"><defs><style>.a{fill:#f5f8ff;}.a,.b,.d,.e,.f,.g{stroke:#1c51ff;}.a,.d,.e,.f,.g{stroke-linecap:round;}.a,.b,.d,.e,.f,.g,.i{stroke-linejoin:round;stroke-width:2px;}.b,.g{fill:#dee7ff;}.c,.f{fill:#1c51ff;}.d,.i{fill:none;}.e{fill:#fff;}.h{fill:#b3b3b3;}.i{stroke:#e6e6e6;}.j{fill:#e6e6e6;}</style></defs><g transform="translate(-7642.724 -8323.862)"><g transform="translate(7692.965 8423.46)"><path class="a" d="M5,0H278.74a5,5,0,0,1,5,5V178.651a0,0,0,0,1,0,0H0a0,0,0,0,1,0,0V5A5,5,0,0,1,5,0Z" transform="translate(31.527)"></path><path class="a" d="M8005.8,8588.686h-283.74l-31.527,38.843h346.794Z" transform="translate(-7690.532 -8410.034)"></path><path class="b" d="M8016.308,8633.047H7711.55l-21.018-7.314h346.794Z" transform="translate(-7690.532 -8408.148)"></path><rect class="a" width="262.723" height="157.634" transform="translate(42.036 10.509)"></rect><rect class="a" width="210.178" height="105.089" transform="translate(68.348 42.036)"></rect><rect class="a" width="52.545" height="105.089" transform="translate(68.348 42.036)"></rect><path class="a" d="M7805.57,8469.194v-10.51h52.545v10.51H7963.2" transform="translate(-7684.677 -8416.649)"></path><rect class="a" width="210.178" height="10.509" transform="translate(68.348 31.527)"></rect><g transform="translate(73.603 35.205)"><circle class="c" cx="1.576" cy="1.576" r="1.576"></circle><circle class="c" cx="1.576" cy="1.576" r="1.576" transform="translate(4.204)"></circle><circle class="c" cx="1.576" cy="1.576" r="1.576" transform="translate(8.407)"></circle></g><line class="d" x2="31.486" transform="translate(131.402 47.29)"></line><line class="d" x2="15.743" transform="translate(131.402 67.387)"></line><line class="d" x2="15.743" transform="translate(131.402 88.405)"></line><line class="d" x2="67.257" transform="translate(136.656 72.642)"></line><line class="d" x2="15.743" transform="translate(73.603 47.29)"></line><line class="d" x2="20.95" transform="translate(78.857 52.545)"></line><line class="d" x2="15.743" transform="translate(73.603 77.896)"></line><line class="d" x2="20.95" transform="translate(78.857 83.151)"></line><line class="d" x2="31.459" transform="translate(78.857 57.799)"></line><line class="d" x2="20.95" transform="translate(78.857 63.053)"></line><line class="d" x2="31.459" transform="translate(78.857 67.387)"></line><line class="d" x2="100.818" transform="translate(141.911 77.896)"></line><line class="d" x2="81.088" transform="translate(136.656 83.151)"></line><line class="d" x2="15.743" transform="translate(131.402 99.835)"></line><line class="d" x2="15.743" transform="translate(131.402 120.852)"></line><line class="d" x2="48.951" transform="translate(136.656 105.089)"></line><line class="d" x2="33.628" transform="translate(141.911 110.344)"></line><line class="d" x2="63.325" transform="translate(136.656 115.598)"></line><rect class="a" width="38.076" height="10.509" transform="translate(173.397 42.036)"></rect><line class="a" x2="17.018" transform="translate(183.946 47.29)"></line><line class="d" x2="15.743" transform="translate(73.603 93.66)"></line></g><g transform="translate(7742.397 8549.567)"><g transform="translate(0 30.213)"><line class="b" x1="30.213" y2="15.107" transform="translate(45.32)"></line><path class="b" d="M7933.956,8567.436l45.319,98.192h-241.7l45.319-83.086,30.213-15.106Z" transform="translate(-7737.57 -8567.436)"></path><path class="b" d="M7810.909,8567.436v15.106H7780.7Z" transform="translate(-7735.375 -8567.436)"></path></g><g transform="translate(0 15.107)"><line class="b" x1="30.213" y2="15.107" transform="translate(45.32)"></line><path class="b" d="M7933.956,8553.061l45.319,98.192h-241.7l45.319-83.086,30.213-15.106Z" transform="translate(-7737.57 -8553.061)"></path><path class="b" d="M7810.909,8553.061v15.106H7780.7Z" transform="translate(-7735.375 -8553.061)"></path></g><line class="e" x1="30.213" y2="15.107" transform="translate(45.32)"></line><path class="a" d="M7933.956,8538.685l45.319,98.193h-241.7l45.319-83.086,30.213-15.107Z" transform="translate(-7737.57 -8538.685)"></path><path class="f" d="M7810.909,8538.685v15.107H7780.7Z" transform="translate(-7735.375 -8538.685)"></path><g transform="translate(35.307 15.563)"><g transform="translate(45.708 10.729)"><path class="e" d="M7897.749,8605.246h-83.086l15.106-41.543h52.873Z" transform="translate(-7814.663 -8563.703)"></path><path class="g" d="M7883.926,8568.99h-56.719l1.923-5.287H7882Z" transform="translate(-7814.023 -8563.703)"></path><path class="g" d="M7897.749,8603.607h-83.086l2.8-7.7h77.482Z" transform="translate(-7814.663 -8562.064)"></path><ellipse class="c" cx="1.813" cy="0.906" rx="1.813" ry="0.906" transform="translate(39.731 36.784)"></ellipse></g><g transform="translate(0 62.717)"><line class="d" x2="73.872" transform="translate(4.12)"></line><line class="d" x2="75.932" transform="translate(2.06 5.287)"></line><line class="d" x2="77.992" transform="translate(0 10.575)"></line><g transform="translate(93.099)"><line class="d" x2="75.012"></line><line class="d" x2="77.033" transform="translate(0 5.287)"></line><line class="d" x2="78.776" transform="translate(0 10.575)"></line></g></g><g transform="translate(53.063)"><line class="d" x2="71.588" transform="translate(0 3.704)"></line><line class="d" x2="49.511" transform="translate(9.433)"></line></g></g></g><g transform="translate(8049.562 8454.171)"><circle class="h" cx="4.494" cy="4.494" r="4.494" transform="translate(27.088 27.088)"></circle><ellipse class="i" cx="31.527" cy="13.136" rx="31.527" ry="13.136" transform="translate(0.055 18.446)"></ellipse><ellipse class="i" cx="31.527" cy="13.136" rx="31.527" ry="13.136" transform="translate(0 44.586) rotate(-45)"></ellipse><ellipse class="i" cx="13.136" cy="31.527" rx="13.136" ry="31.527" transform="translate(0 18.578) rotate(-45)"></ellipse></g><g transform="translate(7642.724 8459.716)"><g transform="translate(4.012)"><path class="i" d="M7689.636,8506.781h-43.095v-53.6l32.965.1,10.13,11Z" transform="translate(-7646.541 -8453.186)"></path><g transform="translate(32.924 0.102)"><path class="i" d="M7677.91,8453.282l-.039,8.977a2.308,2.308,0,0,0,2.376,2.318l7.793-.291Z" transform="translate(-7677.871 -8453.282)"></path></g></g><g transform="translate(0 36.831)"><rect class="j" width="19.112" height="11.615"></rect></g><g transform="translate(4.834 39.743)"><g transform="translate(0 0.07)"><path class="h" d="M7647.324,8496.271l.5-.582a1.5,1.5,0,0,0,1.251.711c.677,0,1.028-.411,1.028-1.217v-3.368h-2.168v-.745h3.017v4.071c0,1.336-.651,2-1.877,2A2.09,2.09,0,0,1,7647.324,8496.271Z" transform="translate(-7647.324 -8491.069)"></path></g><g transform="translate(4.824)"><path class="h" d="M7651.915,8496.387l.316-.669a3.092,3.092,0,0,0,1.98.7c1.037,0,1.483-.4,1.483-.927,0-1.466-3.634-.54-3.634-2.769,0-.925.719-1.714,2.3-1.714a3.53,3.53,0,0,1,1.929.531l-.283.686a3.092,3.092,0,0,0-1.646-.487c-1.021,0-1.457.428-1.457.95,0,1.466,3.634.549,3.634,2.751,0,.918-.738,1.706-2.324,1.706A3.562,3.562,0,0,1,7651.915,8496.387Z" transform="translate(-7651.915 -8491.004)"></path></g></g><g transform="translate(12.621 21.004)"><path class="h" d="M7654.733,8478.119l7.309-3.278v1.541l-5.818,2.49,5.818,2.458v1.542l-7.309-3.262Z" transform="translate(-7654.733 -8473.087)"></path><path class="h" d="M7668.362,8473.172h1.508l-3.883,11.587h-1.508Z" transform="translate(-7654.237 -8473.172)"></path><path class="h" d="M7672.4,8481.33l5.818-2.458-5.818-2.49v-1.541l7.309,3.278v1.491l-7.309,3.262Z" transform="translate(-7653.835 -8473.087)"></path></g></g><g transform="translate(7988.389 8361.569)"><rect class="i" width="55.259" height="43.244" rx="3.988"></rect><g transform="translate(11.266 14.621)"><path class="h" d="M7983.97,8374.379v4.655a.675.675,0,0,0,.675.675h2.576a.675.675,0,0,0,.676-.675v-4.655a.674.674,0,0,1,.675-.674h.249a.674.674,0,0,1,.675.674v12.653a.675.675,0,0,1-.675.675h-.249a.675.675,0,0,1-.675-.675v-5.194a.675.675,0,0,0-.676-.675h-2.576a.675.675,0,0,0-.675.675v5.194a.676.676,0,0,1-.675.675h-.25a.675.675,0,0,1-.675-.675v-12.653a.674.674,0,0,1,.675-.674h.25A.675.675,0,0,1,7983.97,8374.379Z" transform="translate(-7982.37 -8373.705)"></path><path class="h" d="M7992.53,8375.139h-1.205a.675.675,0,0,1-.675-.675v-.085a.674.674,0,0,1,.675-.674h5.36a.675.675,0,0,1,.675.674v.085a.676.676,0,0,1-.675.675h-1.205a.674.674,0,0,0-.675.675v11.219a.676.676,0,0,1-.676.675h-.249a.676.676,0,0,1-.676-.675v-11.219A.674.674,0,0,0,7992.53,8375.139Z" transform="translate(-7981.949 -8373.705)"></path><path class="h" d="M8006.926,8381.683c-.1-1.85-.207-3.906-.145-5.484h-.083c-.312,1.557-.686,3.219-1.123,4.861l-1.723,6.564h-1.019l-1.642-6.295c-.457-1.787-.872-3.511-1.143-5.131h-.062c0,1.64-.084,3.594-.166,5.588l-.24,5.276a.677.677,0,0,1-.675.645h-.073a.674.674,0,0,1-.673-.715l.75-12.653a.674.674,0,0,1,.674-.634h.564a.673.673,0,0,1,.653.506l1.512,5.893c.479,1.849.831,3.221,1.122,4.819h.062c.271-1.6.582-2.93,1.039-4.819l1.452-5.886a.676.676,0,0,1,.656-.513h.62a.674.674,0,0,1,.674.635l.732,12.653a.676.676,0,0,1-.675.714h-.137a.677.677,0,0,1-.675-.643Z" transform="translate(-7981.566 -8373.705)"></path><path class="h" d="M8010.949,8373.705h.249a.675.675,0,0,1,.676.674v11.3a.674.674,0,0,0,.675.675h2.6a.674.674,0,0,1,.674.676h0a.674.674,0,0,1-.674.675h-4.2a.676.676,0,0,1-.676-.675v-12.653A.675.675,0,0,1,8010.949,8373.705Z" transform="translate(-7980.949 -8373.705)"></path></g></g><g transform="translate(7774.644 8324.862)"><g transform="translate(26.56)"><path class="j" d="M7793.529,8324.862l.4,63.786,23.74-15.382a3.986,3.986,0,0,0,1.844-3.371l-.185-31.354a3.9,3.9,0,0,0-2.354-3.557Z" transform="translate(-7793.529 -8324.862)"></path></g><g transform="translate(12.06 14.912)"><path class="h" d="M7801.181,8359.96l-14.484.092-2.955,7-4.01.024,12.168-28,3.854-.024,12.558,27.846-4.089.025Zm-1.383-3.183-5.965-13.645-5.793,13.719Z" transform="translate(-7779.731 -8339.051)"></path></g><path class="i" d="M7770.45,8336.918a3.986,3.986,0,0,0-2.195,3.606l.188,29.906a4,4,0,0,0,1.931,3.416l24.834,14.8h.013l23.771-15.412a4,4,0,0,0,1.807-3.385l-.2-31.229a3.985,3.985,0,0,0-2.375-3.642l-23.414-10.118Z" transform="translate(-7768.255 -8324.862)"></path></g></g></svg>