<svg xmlns="http://www.w3.org/2000/svg" xmlns:xlink="http://www.w3.org/1999/xlink" width="602" height="344.236" viewBox="0 0 602 344.236"><defs><style>.a{fill:#dee7ff;}.a,.b,.c,.d,.e{stroke:#1c51ff;}.a,.b,.c,.d,.e,.f{stroke-linejoin:round;stroke-width:2px;}.b,.f{fill:none;}.b,.c,.e,.f{stroke-linecap:round;}.c{fill:url(#a);}.d{fill:#153dbf;}.e{fill:url(#c);}.f{stroke:#dee7ff;}</style><linearGradient id="a" y1="0.5" x2="1" y2="0.5" gradientUnits="objectBoundingBox"><stop offset="0" stop-color="#1c51ff"></stop><stop offset="1" stop-color="#1c51ff"></stop></linearGradient><linearGradient id="c" x1="-7.254" y1="0.5" x2="-6.254" y2="0.5" xlink:href="#a"></linearGradient></defs><g transform="translate(-9208.755 -9924.554)"><path class="a" d="M5,0H41.635a0,0,0,0,1,0,0V14.43a5,5,0,0,1-5,5H0a0,0,0,0,1,0,0V5A5,5,0,0,1,5,0Z" transform="translate(9305.342 10248.36)"></path><path class="a" d="M5,0H41.635a0,0,0,0,1,0,0V14.43a5,5,0,0,1-5,5H0a0,0,0,0,1,0,0V5A5,5,0,0,1,5,0Z" transform="translate(9326.159 10228.931)"></path><path class="a" d="M5,0H41.635a0,0,0,0,1,0,0V14.43a5,5,0,0,1-5,5H0a0,0,0,0,1,0,0V5A5,5,0,0,1,5,0Z" transform="translate(9346.978 10209.501)"></path><path class="a" d="M5,0H41.635a0,0,0,0,1,0,0V14.43a5,5,0,0,1-5,5H0a0,0,0,0,1,0,0V5A5,5,0,0,1,5,0Z" transform="translate(9367.794 10190.071)"></path><g transform="translate(9464.942 10034.635)"><path class="a" d="M5,0H41.635a0,0,0,0,1,0,0V14.43a5,5,0,0,1-5,5H0a0,0,0,0,1,0,0V5A5,5,0,0,1,5,0Z" transform="translate(0 58.289)"></path><path class="a" d="M5,0H41.635a0,0,0,0,1,0,0V14.43a5,5,0,0,1-5,5H0a0,0,0,0,1,0,0V5A5,5,0,0,1,5,0Z" transform="translate(20.817 38.859)"></path><path class="a" d="M5,0H41.635a0,0,0,0,1,0,0V14.43a5,5,0,0,1-5,5H0a0,0,0,0,1,0,0V5A5,5,0,0,1,5,0Z" transform="translate(41.635 19.43)"></path><path class="a" d="M5,0H41.635a0,0,0,0,1,0,0V14.43a5,5,0,0,1-5,5H0a0,0,0,0,1,0,0V5A5,5,0,0,1,5,0Z" transform="translate(62.452)"></path></g><g transform="translate(9402.491 10112.353)"><path class="a" d="M0,0H41.635a0,0,0,0,1,0,0V19.43a0,0,0,0,1,0,0H5a5,5,0,0,1-5-5V0A0,0,0,0,1,0,0Z" transform="translate(104.087 77.718) rotate(-180)"></path><path class="a" d="M0,0H36.635a5,5,0,0,1,5,5V19.43a0,0,0,0,1,0,0H5a5,5,0,0,1-5-5V0A0,0,0,0,1,0,0Z" transform="translate(83.27 58.289) rotate(-180)"></path><path class="a" d="M0,0H36.635a5,5,0,0,1,5,5V19.43a0,0,0,0,1,0,0H5a5,5,0,0,1-5-5V0A0,0,0,0,1,0,0Z" transform="translate(62.452 38.859) rotate(-180)"></path><path class="a" d="M0,0H36.635a5,5,0,0,1,5,5V19.43a0,0,0,0,1,0,0H0a0,0,0,0,1,0,0V0A0,0,0,0,1,0,0Z" transform="translate(41.635 19.43) rotate(-180)"></path></g><line class="b" x1="219.277" transform="translate(9409.429 10190.071)"></line><line class="b" x1="160.988" transform="translate(9530.17 10034.635)"></line><line class="b" x2="188.815" transform="translate(9314.986 10112.354)"></line><g transform="translate(9589.847 10106.802)"><path class="c" d="M20.817,0h0A20.817,20.817,0,0,1,41.635,20.817V80.494a2.776,2.776,0,0,1-2.776,2.776H0a0,0,0,0,1,0,0V20.817A20.817,20.817,0,0,1,20.817,0Z" transform="translate(0 0)"></path><g transform="translate(5.551 44.444)"><path class="d" d="M5,0H36.084a0,0,0,0,1,0,0V14.43a5,5,0,0,1-5,5H0a0,0,0,0,1,0,0V5A5,5,0,0,1,5,0Z" transform="translate(0 19.43)"></path><g transform="translate(20.817)"><path class="d" d="M5,0H15.266a0,0,0,0,1,0,0V19.43a0,0,0,0,1,0,0H0a0,0,0,0,1,0,0V5A5,5,0,0,1,5,0Z"></path></g></g></g><g transform="translate(9652.3 9951.332)"><path class="c" d="M20.817,0h0A20.817,20.817,0,0,1,41.635,20.817V80.494a2.776,2.776,0,0,1-2.776,2.776H0a0,0,0,0,1,0,0V20.817A20.817,20.817,0,0,1,20.817,0Z"></path><g transform="translate(5.551 44.444)"><path class="d" d="M5,0H36.084a0,0,0,0,1,0,0V14.43a5,5,0,0,1-5,5H0a0,0,0,0,1,0,0V5A5,5,0,0,1,5,0Z" transform="translate(0 19.43)"></path><g transform="translate(20.817)"><path class="d" d="M5,0H15.266a0,0,0,0,1,0,0V19.43a0,0,0,0,1,0,0H0a0,0,0,0,1,0,0V5A5,5,0,0,1,5,0Z"></path></g></g></g><g transform="translate(9311.135 10029.05)"><path class="e" d="M0,0H38.859a2.776,2.776,0,0,1,2.776,2.776V62.452A20.817,20.817,0,0,1,20.817,83.27h0A20.817,20.817,0,0,1,0,62.452V0A0,0,0,0,1,0,0Z" transform="translate(41.635 83.27) rotate(180)"></path><g transform="translate(0 44.444)"><path class="d" d="M0,0H31.084a5,5,0,0,1,5,5V19.43a0,0,0,0,1,0,0H5a5,5,0,0,1-5-5V0A0,0,0,0,1,0,0Z" transform="translate(36.084 38.859) rotate(-180)"></path><path class="d" d="M0,0H15.266a0,0,0,0,1,0,0V19.43a0,0,0,0,1,0,0H5a5,5,0,0,1-5-5V0A0,0,0,0,1,0,0Z" transform="translate(15.266 19.43) rotate(-180)"></path></g></g><g transform="translate(9209.755 9925.554)"><path class="f" d="M9577.411,10082.878a6.044,6.044,0,0,0,.065-.849,5.754,5.754,0,0,0-5.895-5.829,6.149,6.149,0,0,0-2.372.467,9.3,9.3,0,0,0-9.509-8.721,9.819,9.819,0,0,0-4.765,1.2,15.554,15.554,0,0,0-29.439,2.1,9.436,9.436,0,0,0,.646,18.828h50.99a3.6,3.6,0,0,0,.278-7.2Z" transform="translate(-9346.412 -9985.162)"></path><path class="f" d="M10085.313,10443.96a6.208,6.208,0,0,1-.064-.849,5.752,5.752,0,0,1,5.894-5.828,6.174,6.174,0,0,1,2.373.464,9.3,9.3,0,0,1,9.508-8.719,9.837,9.837,0,0,1,4.765,1.2,15.554,15.554,0,0,1,29.44,2.1,9.436,9.436,0,0,1-.646,18.827h-50.99a3.6,3.6,0,0,1-.278-7.2Z" transform="translate(-9597.763 -10145.796)"></path><path class="f" d="M10170.054,10284.63a13.214,13.214,0,0,0-13.277-10.623,14.227,14.227,0,0,0-5.082.928c-2.276-9.61-10.722-16.414-21.306-16.414a22.469,22.469,0,0,0-11.81,3.251c-5.421-12.274-17.637-20.5-32.44-20.5-17.314,0-31.091,11.252-34.592,27.075a14.7,14.7,0,0,0-2.858-.28,13.224,13.224,0,0,0-13.548,13.4,13.973,13.973,0,0,0,.363,3.165,5.118,5.118,0,0,0,.255,10.231h133.976a5.118,5.118,0,0,0,.319-10.229Z" transform="translate(-9574.913 -10066.006)"></path><path class="f" d="M9280.165,10346.146a8.874,8.874,0,0,1,2.895.484,13.3,13.3,0,0,1,13.381-10.8,14.019,14.019,0,0,1,6.972,1.815,21.747,21.747,0,0,1,19.046-10.542c11.574,0,20.6,8.083,21.893,19.092a9.416,9.416,0,0,1,.962-.053,8.33,8.33,0,1,1,0,16.659h-65.147a8.33,8.33,0,1,1,0-16.659Z" transform="translate(-9237.33 -10104.191)"></path><path class="f" d="M9828.015,9949.841a14.309,14.309,0,0,0-4.087.585,13.174,13.174,0,0,0-12.577-8.436,14.284,14.284,0,0,0-3.982.558c-2.019-9.912-10.562-17-21.331-17a21.454,21.454,0,0,0-19,10.734,13.992,13.992,0,0,0-6-1.333,13.135,13.135,0,0,0-12.993,9.74,8.412,8.412,0,0,0-5.419-1.9,8.109,8.109,0,0,0-8.3,7.858,14.176,14.176,0,0,0-4.726-.808,13.319,13.319,0,1,0,0,26.637h98.418a13.319,13.319,0,1,0,0-26.637Z" transform="translate(-9435.023 -9925.553)"></path><path class="f" d="M9831.884,10475.213h-2.447c.032-.4.058-.791.058-1.2a13.367,13.367,0,0,0-13.693-13.541,13.848,13.848,0,0,0-8.682,2.945c-2.727-9.025-10.976-15.291-21.189-15.291-11.167,0-19.979,7.492-21.8,17.885a14.307,14.307,0,0,0-5.683-1.158,13.542,13.542,0,1,0,0,27.082h73.436a8.363,8.363,0,1,0,0-16.725Z" transform="translate(-9447.759 -10158.03)"></path><path class="f" d="M9218.213,9978.615h2.447c-.032-.395-.059-.791-.059-1.2a13.366,13.366,0,0,1,13.694-13.541,13.864,13.864,0,0,1,8.682,2.943c2.726-9.023,10.974-15.29,21.19-15.29,11.166,0,19.978,7.494,21.8,17.887a14.266,14.266,0,0,1,5.682-1.16,13.543,13.543,0,1,1,0,27.084h-73.436a8.364,8.364,0,1,1,0-16.728Z" transform="translate(-9209.755 -9937.111)"></path></g></g></svg>