<svg xmlns="http://www.w3.org/2000/svg" width="572" height="384.733" viewBox="0 0 572 384.733"><defs><style>.a,.f{fill:#fff;}.a,.c,.d,.f{stroke:#1c51ff;stroke-linejoin:round;stroke-width:2px;}.a,.c{stroke-linecap:round;}.b{opacity:0.1;}.c{fill:none;}.d{fill:#dee7ff;}.e{fill:#1c51ff;}</style></defs><g transform="translate(-10013.004 -10178.854)"><path class="a" d="M10118.5,10357.212v165.112h385.263a27.518,27.518,0,0,0,27.519-27.518v-192.633h-357.744" transform="translate(-46.983 -54.997)"></path><g transform="translate(10071.515 10219.658)"><g class="b" transform="translate(16.511 44.027)"><g transform="translate(22.015)"><path class="c" d="M10507.716,10332.17H10188.5" transform="translate(-10188.498 -10332.17)"></path><path class="c" d="M10788.5,10595.738h28.1v-93.564" transform="translate(-10458.272 -10408.607)"></path></g><path class="c" d="M10148.5,10372.17v165.112h352.24" transform="translate(-10148.498 -10350.155)"></path><path class="c" d="M10788.5,10672.175" transform="translate(-10436.258 -10485.044)"></path><line class="c" x1="341.81" transform="translate(38.526)"></line><line class="c" x1="380.336" transform="translate(0 37.426)"></line><line class="c" x1="380.336" transform="translate(0 74.851)"></line><line class="c" x1="380.336" transform="translate(0 112.277)"></line><line class="c" x1="380.336" transform="translate(0 149.702)"></line><line class="c" x1="380.336" transform="translate(0 187.128)"></line><g transform="translate(42.26)"><line class="c" y2="187.13"></line><line class="c" y2="187.13" transform="translate(42.26)"></line><line class="c" y2="187.13" transform="translate(84.519)"></line><line class="c" y2="187.13" transform="translate(126.779)"></line><line class="c" y2="187.13" transform="translate(169.038)"></line><line class="c" y2="187.13" transform="translate(211.298)"></line><line class="c" y2="187.13" transform="translate(253.558)"></line><line class="c" y2="187.13" transform="translate(295.817)"></line></g></g><path class="d" d="M10173.535,10302.17v55.037H10118.5Z" transform="translate(-10118.498 -10274.654)"></path><path class="d" d="M10768.5,10279.693a27.519,27.519,0,0,1,55.037,0v192.632a27.519,27.519,0,0,0-55.037,0Z" transform="translate(-10410.754 -10252.175)"></path></g><g transform="translate(10126.269 10312.753)"><g transform="translate(0.284 0)"><rect class="e" width="81.016" height="8.271"></rect><rect class="e" width="48.633" height="8.271" transform="translate(0 13.774)"></rect></g><g transform="translate(0 38.86)"><line class="c" x2="63.688" transform="translate(0.284)"></line><line class="c" x2="63.688" transform="translate(0.284 17.364)"></line><line class="c" x2="51.758" transform="translate(0 5.788)"></line><line class="c" x2="51.758" transform="translate(0 40.515)"></line><line class="c" x2="36.134" transform="translate(0 28.939)"></line><line class="c" x2="58.291" transform="translate(0 11.576)"></line><line class="c" x2="58.291" transform="translate(0 34.727)"></line><line class="c" x2="45.508" transform="translate(0 23.151)"></line></g></g><g transform="translate(10341.584 10309.512)"><line class="c" x1="63.688"></line><line class="c" x1="63.688" transform="translate(0 17.364)"></line><line class="c" x1="51.758" transform="translate(12.215 5.788)"></line><line class="c" x1="51.758" transform="translate(12.215 40.515)"></line><line class="c" x1="36.134" transform="translate(27.838 28.939)"></line><line class="c" x1="58.291" transform="translate(5.681 11.576)"></line><line class="c" x1="58.291" transform="translate(5.681 34.727)"></line><line class="c" x1="45.508" transform="translate(18.464 23.151)"></line><g transform="translate(0 45.343)"><line class="c" x1="63.688"></line><line class="c" x1="63.688" transform="translate(0 17.364)"></line><line class="c" x1="51.758" transform="translate(12.215 5.788)"></line><line class="c" x1="51.758" transform="translate(12.215 40.515)"></line><line class="c" x1="36.134" transform="translate(27.838 28.939)"></line><line class="c" x1="58.291" transform="translate(5.681 11.576)"></line><line class="c" x1="58.291" transform="translate(5.681 34.727)"></line><line class="c" x1="45.508" transform="translate(18.464 23.151)"></line></g></g><g transform="translate(10014.004 10179.854)"><path class="d" d="M10014,10179.855V10314.5l134.649-134.644Zm24.145,22.725h52.016l-52.016,52.01Z" transform="translate(-10014.004 -10179.854)"></path><g transform="translate(5.568)"><line class="c" y2="9.159"></line><line class="c" y2="3.656" transform="translate(8.85)"></line><line class="c" y2="9.159" transform="translate(17.7)"></line><line class="c" y2="3.656" transform="translate(26.549)"></line><line class="c" y2="9.159" transform="translate(35.399)"></line><line class="c" y2="3.656" transform="translate(44.249)"></line><line class="c" y2="9.159" transform="translate(53.098)"></line><line class="c" y2="3.656" transform="translate(61.948)"></line><line class="c" y2="9.159" transform="translate(70.798)"></line><line class="c" y2="3.656" transform="translate(79.648)"></line><line class="c" y2="9.159" transform="translate(88.497)"></line><line class="c" y2="3.656" transform="translate(97.347)"></line><line class="c" y2="9.159" transform="translate(106.197)"></line><line class="c" y2="3.656" transform="translate(115.046)"></line><g transform="translate(15.79 22.196)"><line class="c" x1="6.477" y1="6.477" transform="translate(77.458)"></line><line class="c" x1="2.585" y1="2.585" transform="translate(75.092 10.149)"></line><line class="c" x1="6.477" y1="6.477" transform="translate(64.943 12.515)"></line><line class="c" x1="2.585" y1="2.585" transform="translate(62.577 22.664)"></line><line class="c" x1="6.477" y1="6.477" transform="translate(52.428 25.03)"></line><line class="c" x1="2.585" y1="2.585" transform="translate(50.062 35.18)"></line><line class="c" x1="6.477" y1="6.477" transform="translate(39.912 37.546)"></line><line class="c" x1="2.585" y1="2.585" transform="translate(37.546 47.695)"></line><line class="c" x1="6.477" y1="6.477" transform="translate(27.397 50.061)"></line><line class="c" x1="2.585" y1="2.585" transform="translate(25.031 60.211)"></line><line class="c" x1="6.477" y1="6.477" transform="translate(14.882 62.577)"></line><line class="c" x1="2.585" y1="2.585" transform="translate(12.516 72.726)"></line><line class="c" x1="6.477" y1="6.477" transform="translate(2.366 75.092)"></line><line class="c" x1="2.585" y1="2.585" transform="translate(0 85.242)"></line></g></g></g><g transform="translate(10253.139 10487.595)"><rect class="d" width="231.158" height="22.015" transform="translate(0 0)"></rect><g transform="translate(8.756 12.856)"><line class="c" y1="9.159" transform="translate(115.046)"></line><line class="c" y1="3.656" transform="translate(106.196 5.504)"></line><line class="c" y1="9.159" transform="translate(97.347)"></line><line class="c" y1="3.656" transform="translate(88.497 5.504)"></line><line class="c" y1="9.159" transform="translate(79.648)"></line><line class="c" y1="3.656" transform="translate(70.797 5.504)"></line><line class="c" y1="9.159" transform="translate(61.948)"></line><line class="c" y1="3.656" transform="translate(53.098 5.504)"></line><line class="c" y1="9.159" transform="translate(44.248)"></line><line class="c" y1="3.656" transform="translate(35.399 5.504)"></line><line class="c" y1="9.159" transform="translate(26.549)"></line><line class="c" y1="3.656" transform="translate(17.699 5.504)"></line><line class="c" y1="9.159" transform="translate(8.85)"></line><line class="c" y1="3.656" transform="translate(0 5.504)"></line></g><line class="c" y1="3.656" transform="translate(204.01 18.36)"></line><line class="c" y1="9.159" transform="translate(195.161 12.856)"></line><line class="c" y1="3.656" transform="translate(186.311 18.36)"></line><line class="c" y1="9.159" transform="translate(177.461 12.856)"></line><line class="c" y1="3.656" transform="translate(168.612 18.36)"></line><line class="c" y1="9.159" transform="translate(159.762 12.856)"></line><line class="c" y1="3.656" transform="translate(150.913 18.36)"></line><line class="c" y1="9.159" transform="translate(142.063 12.856)"></line><line class="c" y1="3.656" transform="translate(133.213 18.36)"></line><circle class="a" cx="4.128" cy="4.128" r="4.128" transform="translate(214.896 6.88)"></circle></g><g transform="translate(10247.432 10212.669)"><rect class="d" width="82.556" height="16.511" transform="translate(23.169 0)"></rect><path class="d" d="M10643.918,10247.736l-4.9,2.955-8.783,5.3v-16.511l8.783,5.3Z" transform="translate(-10524.503 -10239.479)"></path><g transform="translate(23.169 5.504)"><line class="c" x2="82.556" transform="translate(0 5.504)"></line><line class="c" x2="82.556"></line></g><rect class="d" width="3.569" height="16.511" transform="translate(19.601 0)"></rect><path class="d" d="M8.256,0H19.6a0,0,0,0,1,0,0V16.511a0,0,0,0,1,0,0H8.256A8.256,8.256,0,0,1,0,8.256v0A8.256,8.256,0,0,1,8.256,0Z" transform="translate(0 0)"></path><path class="e" d="M10651.093,10252.065l-4.9,2.955v-5.911Z" transform="translate(-10531.678 -10243.808)"></path></g><g transform="translate(10240.376 10289.443)"><g transform="translate(0 0)"><rect class="d" width="74.993" height="125.994" rx="5"></rect><path class="a" d="M0,0H74.993a0,0,0,0,1,0,0V4.734a5,5,0,0,1-5,5H5a5,5,0,0,1-5-5V0A0,0,0,0,1,0,0Z" transform="translate(0 116.26)"></path><path class="a" d="M0,0H74.993a0,0,0,0,1,0,0V4.734a5,5,0,0,1-5,5H5a5,5,0,0,1-5-5V0A0,0,0,0,1,0,0Z" transform="translate(74.993 9.735) rotate(180)"></path></g><g transform="translate(10.238 20.86)"><rect class="f" width="22.015" height="22.015" transform="translate(33.147)"></rect><rect class="f" width="22.015" height="22.015"></rect><rect class="f" width="22.015" height="22.015" transform="translate(33.147 30.271)"></rect><rect class="f" width="22.015" height="22.015" transform="translate(0 30.271)"></rect><rect class="f" width="22.015" height="22.015" transform="translate(33.147 60.541)"></rect><rect class="f" width="22.015" height="22.015" transform="translate(0 60.541)"></rect></g></g><g transform="translate(10509.011 10225.587)"><rect class="d" width="74.993" height="125.994" rx="5" transform="translate(0)"></rect><path class="a" d="M0,0H74.993a0,0,0,0,1,0,0V4.734a5,5,0,0,1-5,5H5a5,5,0,0,1-5-5V0A0,0,0,0,1,0,0Z" transform="translate(0 116.26)"></path><path class="a" d="M0,0H74.993a0,0,0,0,1,0,0V4.734a5,5,0,0,1-5,5H5a5,5,0,0,1-5-5V0A0,0,0,0,1,0,0Z" transform="translate(74.994 9.735) rotate(-180)"></path></g><g transform="translate(10518.988 10243.588)"><rect class="f" width="55.038" height="44.996" transform="translate(0 0)"></rect><rect class="f" width="55.038" height="14.243" transform="translate(0 52.473)"></rect><rect class="f" width="55.038" height="14.243" transform="translate(0 74.435)"></rect></g><g transform="translate(10071.621 10487.595)"><g transform="translate(0 0)"><rect class="d" width="74.993" height="125.994" rx="5" transform="translate(0 74.993) rotate(-90)"></rect><path class="a" d="M0,0H74.993a0,0,0,0,1,0,0V4.734a5,5,0,0,1-5,5H5a5,5,0,0,1-5-5V0A0,0,0,0,1,0,0Z" transform="translate(116.26 74.993) rotate(-90)"></path><path class="a" d="M0,0H74.993a0,0,0,0,1,0,0V4.734a5,5,0,0,1-5,5H5a5,5,0,0,1-5-5V0A0,0,0,0,1,0,0Z" transform="translate(9.734 0) rotate(90)"></path></g><rect class="f" width="44.03" height="44.03" transform="translate(29.084 59.512) rotate(-90)"></rect><rect class="f" width="38.526" height="11.008" transform="translate(31.836 0)"></rect><rect class="f" width="38.526" height="11.008" transform="translate(31.836 63.985)"></rect><g transform="translate(91.584 10.501)"><line class="c" y1="53.992"></line><line class="c" y1="43.878" transform="translate(5.788 5.057)"></line></g></g></g></svg>