<svg xmlns="http://www.w3.org/2000/svg" width="50.581" height="20" viewBox="0 0 50.581 20"><defs><style>.a{fill:#1c51ff;}</style></defs><g transform="translate(-159.156 -31.238)"><path class="a" d="M172.265,37.483c-.62,0-.909.419-.959,1.1h1.908C173.174,37.854,172.874,37.483,172.265,37.483Z" transform="translate(5.504 2.904)"></path><path class="a" d="M182.875,37.483c-.72,0-1.069.5-1.069,1.359v.58c0,.779.26,1.391,1.069,1.391.76,0,1.06-.612,1.06-1.391v-.58C183.935,37.973,183.585,37.483,182.875,37.483Z" transform="translate(10.328 3.512)"></path><path class="a" d="M209.223,40.141l-2.969-2.474V35.524a4.285,4.285,0,0,0-4.286-4.286H163.442a4.286,4.286,0,0,0-4.286,4.286V46.952a4.286,4.286,0,0,0,4.286,4.286h38.527a4.285,4.285,0,0,0,4.286-4.286V44.809l2.969-2.474A1.427,1.427,0,0,0,209.223,40.141Zm-11.737-3.893h1.554V43.4h-1.554ZM173.38,46.1h-1.656V41.715h-3.769V46.1H166.3V36.248h1.657v4.04h3.769v-4.04h1.656Zm7.386-3.2H176.5v.029c0,1.113.429,1.987,1.557,1.987a1.481,1.481,0,0,0,1.47-.7l1.143.8a2.6,2.6,0,0,1-2.556,1.213A2.935,2.935,0,0,1,174.985,43v-.971c0-2.1,1.027-3.2,2.9-3.2,1.956,0,2.883,1.17,2.883,3.286Zm4.089,3.2c-1.856,0-2.613-.6-2.613-2.241v-7.61h1.527V43.5c0,.77.144,1.256,1.086,1.256Zm4.029,0c-1.856,0-2.613-.6-2.613-2.241v-7.61H187.8V43.5c0,.77.144,1.256,1.086,1.256Zm7.184-3.126c0,1.9-.927,3.253-3.027,3.253-2,0-3.041-1.283-3.041-3.253v-.9c0-2.1,1.116-3.24,3.041-3.24s3.027,1.143,3.027,3.24Zm3.044,3.126h-1.7V44.414h1.7Z" transform="translate(0 0)"></path></g></svg>