<svg xmlns="http://www.w3.org/2000/svg" width="1314" height="914.7" viewBox="0 0 1314 914.7"><defs><style>.a{fill:#f2f3f5;}.b{fill:#061033;font-size:20px;}.b,.d{font-family:DIN2014-Bold, 'DIN 2014';font-weight:700;}.c{fill:#fff;}.d{fill:#1c51ff;}.d,.h{font-size:18px;}.e{fill:#999;}.f{fill:#e6e6e6;}.g{fill:#b3b3b3;}.h{fill:#818698;font-family:ProximaNova-Medium, Proxima Nova;font-weight:500;}.i{fill:#e6e9ed;}.j,.p,.q,.r,.s,.t,.u{fill:none;stroke-linecap:round;stroke-linejoin:round;stroke-width:2px;}.j,.p,.q,.r,.s{stroke:#173bbf;}.k{fill:#173bbf;}.l{opacity:0.2;}.m{fill:#f4ae22;}.n{fill:#ffd98d;}.o{fill:#ffcc5a;}.p{stroke-dasharray:12.729 12.729;}.q{stroke-dasharray:11.11 11.11;}.r{stroke-dasharray:12.144 12.144;}.s{stroke-dasharray:11.832 11.832;}.t,.u{stroke:#b3b3b3;}.u{stroke-dasharray:11.977 11.977;}</style></defs><g transform="translate(-50 -138)"><rect class="a" width="654" height="634" rx="5" transform="translate(380 138)"/><text class="b" transform="translate(709 207)"><tspan x="-113.28" y="0">CODENAME ONE RUNTIME</tspan></text><g transform="translate(-221 -2894)"><rect class="c" width="200" height="224" rx="5" transform="translate(655 3167)"/><text class="d" transform="translate(755 3234)"><tspan x="-56.466" y="0">Codename One</tspan><tspan x="-50.355" y="23">Class Library</tspan></text><g transform="translate(729 3137)"><path class="e" d="M52,45,26,60V30L52,15Z"/><path class="f" d="M26,30,0,15,26,0,52,15Z"/><path class="g" d="M26,60,0,45V15L26,30Z"/><path class="c" d="M16.6,43.8,9.4,39.6V31.2l7.2,4.2Z"/></g><text class="h" transform="translate(755 3280)"><tspan x="-23.067" y="0">(Java)</tspan></text><text class="h" transform="translate(755 3321)"><tspan x="-63.666" y="0">Widgets, Media,</tspan><tspan x="-73.611" y="23">Locations, Contact</tspan><tspan x="-12.258" y="46">etc</tspan></text></g><g transform="translate(-219 -2894)"><rect class="i" width="300" height="479" rx="5" transform="translate(903 3137)"/><text class="b" transform="translate(1053 3206)"><tspan x="-69.94" y="0">CODENAME ONE</tspan><tspan x="-47.51" y="25">UWP PORT</tspan></text><g transform="translate(628 -275)"><rect class="c" width="200" height="93" rx="5" transform="translate(325 3572)"/><text class="d" transform="translate(425 3639)"><tspan x="-53.1" y="0">Java or Kotlin</tspan></text><g transform="translate(399 3542)"><path class="e" d="M52,45,26,60V30L52,15Z"/><path class="f" d="M26,30,0,15,26,0,52,15Z"/><path class="g" d="M26,60,0,45V15L26,30Z"/><path class="c" d="M16.6,43.8,9.4,39.6V31.2l7.2,4.2Z"/></g></g><g transform="translate(628 -247)"><rect class="c" width="200" height="116" rx="5" transform="translate(325 3697)"/><text class="d" transform="translate(425 3764)"><tspan x="-59.571" y="0">Implementation</tspan><tspan x="-16.587" y="23">(C#)</tspan></text><g transform="translate(399 3667)"><path class="e" d="M52,45,26,60V30L52,15Z"/><path class="f" d="M26,30,0,15,26,0,52,15Z"/><path class="g" d="M26,60,0,45V15L26,30Z"/><path class="c" d="M16.6,43.8,9.4,39.6V31.2l7.2,4.2Z"/></g></g></g><g transform="translate(644 380)"><line class="j" x1="14.2" transform="translate(7.2 5)"/><path class="k" d="M20,0l8.6,5L20,10Z"/><path class="k" d="M8.6,0,0,5l8.6,5Z"/></g><g transform="translate(-217 -2892)"><rect class="a" width="300" height="339" rx="5" transform="translate(1281 3030)"/><text class="b" transform="translate(1431 3099)"><tspan x="-82.13" y="0">NATIVE PLATFORM</tspan></text><rect class="c" width="200" height="134" rx="5" transform="translate(1331 3185)"/><g transform="translate(1388 3135)"><g class="l"><path class="m" d="M43.5,50.1l43.2-25-.2,49.8L43.4,100Z"/><path class="n" d="M.1,25.1,43.3,0,86.7,25.1l-43.2,25Z"/><path class="o" d="M43.5,50.1,43.4,100,0,74.9.1,25.1Z"/></g><path class="m" d="M69.3,65l-26,15V50l26-15Z"/><path class="n" d="M43.3,50,17.4,35,43.3,20l26,15Z"/><path class="o" d="M43.3,80,17.4,65V35L43.3,50Z"/><path class="c" d="M34,63.8l-7.3-4.2V51.2L34,55.4Z"/></g><text class="d" transform="translate(1431 3272)"><tspan x="-63.081" y="0">.NET PLATFORM</tspan></text><text class="h" transform="translate(1431 3295)"><tspan x="-60.687" y="0">.NET Core APIs</tspan></text></g><g transform="translate(-255 -2924)"><g transform="translate(30 30)"><rect class="a" width="300" height="339" rx="5" transform="translate(275 3032)"/><text class="b" transform="translate(425 3101)"><tspan x="-89.07" y="0">APPLICATION LAYER</tspan></text><g transform="translate(0 -8)"><rect class="c" width="200" height="134" rx="5" transform="translate(325 3195)"/><g transform="translate(382 3145)"><g class="l"><path class="m" d="M43.5,50.1l43.2-25-.2,49.8L43.4,100Z"/><path class="n" d="M.1,25.1,43.3,0,86.7,25.1l-43.2,25Z"/><path class="o" d="M43.5,50.1,43.4,100,0,74.9.1,25.1Z"/></g><path class="m" d="M69.3,65l-26,15V50l26-15Z"/><path class="n" d="M43.3,50,17.4,35,43.3,20l26,15Z"/><path class="o" d="M43.3,80,17.4,65V35L43.3,50Z"/><path class="c" d="M34,63.8l-7.3-4.2V51.2L34,55.4Z"/></g><text class="d" transform="translate(425 3282)"><tspan x="-39.591" y="0">APP CODE</tspan></text><text class="h" transform="translate(425 3305)"><tspan x="-58.239" y="0">(Java or Kotlin)</tspan></text></g></g><g transform="translate(30 22)"><rect class="a" width="300" height="454" rx="5" transform="translate(275 3409)"/><text class="b" transform="translate(425 3478)"><tspan x="-88.62" y="0">NATIVE INTERFACES</tspan></text><g transform="translate(0 -28)"><rect class="c" width="200" height="93" rx="5" transform="translate(325 3572)"/><text class="d" transform="translate(425 3639)"><tspan x="-53.1" y="0">Java or Kotlin</tspan></text><g transform="translate(399 3542)"><path class="e" d="M52,45,26,60V30L52,15Z"/><path class="f" d="M26,30,0,15,26,0,52,15Z"/><path class="g" d="M26,60,0,45V15L26,30Z"/><path class="c" d="M16.6,43.8,9.4,39.6V31.2l7.2,4.2Z"/></g></g><rect class="c" width="200" height="116" rx="5" transform="translate(325 3697)"/><text class="d" transform="translate(425 3764)"><tspan x="-59.571" y="0">Implementation</tspan><tspan x="-16.587" y="23">(C#)</tspan></text><g transform="translate(399 3667)"><path class="e" d="M52,45,26,60V30L52,15Z"/><path class="f" d="M26,30,0,15,26,0,52,15Z"/><path class="g" d="M26,60,0,45V15L26,30Z"/><path class="c" d="M16.6,43.8,9.4,39.6V31.2l7.2,4.2Z"/></g></g><g transform="translate(450 3371)"><line class="j" y2="6" transform="translate(5 7.2)"/><line class="p" y2="44.6" transform="translate(5 25.9)"/><line class="j" y2="6" transform="translate(5 76.8)"/><path class="k" d="M0,8.6,5,0l5,8.6Z"/><path class="k" d="M0,81.4,5,90l5-8.6Z"/></g></g><g transform="translate(320 355)"><line class="j" x2="6" transform="translate(7.2 5)"/><path class="q" d="M24.3,5H40a4.951,4.951,0,0,1,5,5V38.7a4.951,4.951,0,0,0,5,5H73.2"/><line class="j" x2="6" transform="translate(78.7 43.7)"/><path class="k" d="M8.6,10,0,5,8.6,0Z"/><path class="k" d="M83.9,37.6V49.8L90,43.7Z"/></g><g transform="translate(904 369)"><line class="j" x2="6" transform="translate(7.2 245.6)"/><path class="r" d="M25.3,245.6H140a4.951,4.951,0,0,0,5-5V11.1a4.951,4.951,0,0,1,5-5h22.7"/><line class="j" x2="6" transform="translate(178.7 6.1)"/><path class="k" d="M8.6,250.6l-8.6-5,8.6-5Z"/><path class="k" d="M183.9,0V12.1l6.1-6Z"/></g><g transform="translate(320 610)"><line class="j" x2="6" transform="translate(7.2 245.6)"/><path class="s" d="M25,245.6H380a4.951,4.951,0,0,0,5-5V11.1a4.951,4.951,0,0,1,5-5h32.8"/><line class="j" x2="6" transform="translate(428.7 6.1)"/><path class="k" d="M8.6,250.6l-8.6-5,8.6-5Z"/><path class="k" d="M433.9,0V12.1l6.1-6Z"/></g><g transform="translate(195 509)"><line class="t" y2="6" transform="translate(5 479)"/><path class="u" d="M5,497v40.7a4.951,4.951,0,0,0,5,5H1010a4.951,4.951,0,0,0,5-5V19.2"/><line class="t" y1="6" transform="translate(1015 7.2)"/><path class="g" d="M0,480.5l5-8.7,5,8.7Z"/><path class="g" d="M1020,8.6,1015,0l-5,8.6Z"/></g></g></svg>