<svg xmlns="http://www.w3.org/2000/svg" width="900" height="1200" viewBox="0 0 900 1200">
<defs>
  <linearGradient id="bg" x1="0" y1="0" x2="1" y2="1"><stop stop-color="#081321"/><stop offset="1" stop-color="#102b42"/></linearGradient>
  <filter id="glow"><feGaussianBlur stdDeviation="9" result="b"/><feMerge><feMergeNode in="b"/><feMergeNode in="SourceGraphic"/></feMerge></filter>
</defs>
<rect width="100%" height="100%" rx="36" fill="url(#bg)"/>

<text x="450" y="90" fill="#ff6d78" font-family="Arial, sans-serif" font-size="30" font-weight="700" text-anchor="middle">THE APP PROCESS CAN BE GONE</text>
<g>
<rect x="120" y="155" width="660" height="155" rx="28" fill="#142438" stroke="#425b72" stroke-width="3"/>
<rect x="144" y="179" width="12" height="107" rx="6" fill="#ff6d78"/>
<text x="182" y="221" fill="#f5f8fb" font-family="Arial, sans-serif" font-size="32" font-weight="700" text-anchor="start">Component tree</text>
<text x="182" y="267" fill="#9fb5c8" font-family="Arial, sans-serif" font-size="23" font-weight="400" text-anchor="start">not running</text>
</g>
<g>
<rect x="120" y="350" width="660" height="155" rx="28" fill="#142438" stroke="#425b72" stroke-width="3"/>
<rect x="144" y="374" width="12" height="107" rx="6" fill="#ff6d78"/>
<text x="182" y="416" fill="#f5f8fb" font-family="Arial, sans-serif" font-size="32" font-weight="700" text-anchor="start">Event dispatch thread</text>
<text x="182" y="462" fill="#9fb5c8" font-family="Arial, sans-serif" font-size="23" font-weight="400" text-anchor="start">not running</text>
</g>
<g>
<rect x="120" y="545" width="660" height="155" rx="28" fill="#142438" stroke="#425b72" stroke-width="3"/>
<rect x="144" y="569" width="12" height="107" rx="6" fill="#ff6d78"/>
<text x="182" y="611" fill="#f5f8fb" font-family="Arial, sans-serif" font-size="32" font-weight="700" text-anchor="start">Java listener</text>
<text x="182" y="657" fill="#9fb5c8" font-family="Arial, sans-serif" font-size="23" font-weight="400" text-anchor="start">not waiting</text>
</g>
<path d="M450 730 v105" stroke="#60758a" stroke-width="8" stroke-dasharray="15 14"/>
<g>
<rect x="120" y="870" width="660" height="175" rx="28" fill="#142438" stroke="#425b72" stroke-width="3"/>
<rect x="144" y="894" width="12" height="127" rx="6" fill="#7ce6ad"/>
<text x="182" y="936" fill="#f5f8fb" font-family="Arial, sans-serif" font-size="32" font-weight="700" text-anchor="start">System surface</text>
<text x="182" y="982" fill="#9fb5c8" font-family="Arial, sans-serif" font-size="23" font-weight="400" text-anchor="start">still visible and interactive</text>
</g>

</svg>
