<svg xmlns="http://www.w3.org/2000/svg" width="1400" height="760" viewBox="0 0 1400 760">
<defs>
  <linearGradient id="bg" x1="0" y1="0" x2="1" y2="1"><stop stop-color="#081321"/><stop offset="1" stop-color="#102b42"/></linearGradient>
  <filter id="glow"><feGaussianBlur stdDeviation="9" result="b"/><feMerge><feMergeNode in="b"/><feMergeNode in="SourceGraphic"/></feMerge></filter>
</defs>
<rect width="100%" height="100%" rx="36" fill="url(#bg)"/>

<text x="700" y="92" fill="#ff6d78" font-family="Arial, sans-serif" font-size="32" font-weight="700" text-anchor="middle">THE APP PROCESS CAN BE GONE</text>
<g>
<rect x="70" y="165" width="365" height="160" rx="28" fill="#142438" stroke="#425b72" stroke-width="3"/>
<rect x="94" y="189" width="12" height="112" rx="6" fill="#ff6d78"/>
<text x="132" y="231" fill="#f5f8fb" font-family="Arial, sans-serif" font-size="32" font-weight="700" text-anchor="start">Component tree</text>
<text x="132" y="277" fill="#9fb5c8" font-family="Arial, sans-serif" font-size="23" font-weight="400" text-anchor="start">not running</text>
</g>
<g>
<rect x="70" y="365" width="365" height="160" rx="28" fill="#142438" stroke="#425b72" stroke-width="3"/>
<rect x="94" y="389" width="12" height="112" rx="6" fill="#ff6d78"/>
<text x="132" y="431" fill="#f5f8fb" font-family="Arial, sans-serif" font-size="32" font-weight="700" text-anchor="start">Event thread</text>
<text x="132" y="477" fill="#9fb5c8" font-family="Arial, sans-serif" font-size="23" font-weight="400" text-anchor="start">not running</text>
</g>
<g>
<rect x="70" y="565" width="365" height="140" rx="28" fill="#142438" stroke="#425b72" stroke-width="3"/>
<rect x="94" y="589" width="12" height="92" rx="6" fill="#ff6d78"/>
<text x="132" y="631" fill="#f5f8fb" font-family="Arial, sans-serif" font-size="32" font-weight="700" text-anchor="start">Java listener</text>
<text x="132" y="677" fill="#9fb5c8" font-family="Arial, sans-serif" font-size="23" font-weight="400" text-anchor="start">not waiting</text>
</g>
<path d="M490 405 H780" stroke="#60758a" stroke-width="8" stroke-dasharray="15 14"/>
<g>
<rect x="830" y="255" width="500" height="300" rx="28" fill="#142438" stroke="#425b72" stroke-width="3"/>
<rect x="854" y="279" width="12" height="252" rx="6" fill="#7ce6ad"/>
<text x="892" y="321" fill="#f5f8fb" font-family="Arial, sans-serif" font-size="32" font-weight="700" text-anchor="start">System surface</text>
<text x="892" y="367" fill="#9fb5c8" font-family="Arial, sans-serif" font-size="23" font-weight="400" text-anchor="start">still visible
and interactive</text>
</g>

</svg>
