<svg xmlns="http://www.w3.org/2000/svg" width="1400" height="760" viewBox="0 0 1400 760">
<defs>
  <linearGradient id="bg" x1="0" y1="0" x2="1" y2="1"><stop stop-color="#081321"/><stop offset="1" stop-color="#102b42"/></linearGradient>
  <filter id="glow"><feGaussianBlur stdDeviation="9" result="b"/><feMerge><feMergeNode in="b"/><feMergeNode in="SourceGraphic"/></feMerge></filter>
</defs>
<rect width="100%" height="100%" rx="36" fill="url(#bg)"/>

<text x="700" y="95" fill="#f5f8fb" font-family="Arial, sans-serif" font-size="31" font-weight="700" text-anchor="middle">SYSTEM SURFACES HAVE TIGHTER RULES THAN APP SCREENS</text>
<rect x="100" y="170" width="1200" height="430" rx="55" fill="#12253a" stroke="#425b72" stroke-width="4"/>
<g>
<rect x="150" y="235" width="300" height="250" rx="28" fill="#142438" stroke="#425b72" stroke-width="3"/>
<rect x="174" y="259" width="12" height="202" rx="6" fill="#ff8a34"/>
<text x="212" y="301" fill="#f5f8fb" font-family="Arial, sans-serif" font-size="32" font-weight="700" text-anchor="start">Text + images</text>
<text x="212" y="347" fill="#9fb5c8" font-family="Arial, sans-serif" font-size="23" font-weight="400" text-anchor="start">serializable</text>
</g>
<g>
<rect x="550" y="235" width="300" height="250" rx="28" fill="#142438" stroke="#425b72" stroke-width="3"/>
<rect x="574" y="259" width="12" height="202" rx="6" fill="#50d8ff"/>
<text x="612" y="301" fill="#f5f8fb" font-family="Arial, sans-serif" font-size="32" font-weight="700" text-anchor="start">Rows + columns</text>
<text x="612" y="347" fill="#9fb5c8" font-family="Arial, sans-serif" font-size="23" font-weight="400" text-anchor="start">portable layout</text>
</g>
<g>
<rect x="950" y="235" width="300" height="250" rx="28" fill="#142438" stroke="#425b72" stroke-width="3"/>
<rect x="974" y="259" width="12" height="202" rx="6" fill="#7ce6ad"/>
<text x="1012" y="301" fill="#f5f8fb" font-family="Arial, sans-serif" font-size="32" font-weight="700" text-anchor="start">Progress + actions</text>
<text x="1012" y="347" fill="#9fb5c8" font-family="Arial, sans-serif" font-size="23" font-weight="400" text-anchor="start">native behavior</text>
</g>
<rect x="390" y="635" width="620" height="78" rx="28" fill="#06101b" stroke="#ff8a34" stroke-width="4"/>
<text x="700" y="687" fill="#ffb073" font-family="Arial, sans-serif" font-size="28" font-weight="700" text-anchor="middle">COMMON SYSTEM FLOOR</text>

</svg>
