<svg xmlns="http://www.w3.org/2000/svg" viewBox="0 0 1600 900">
  <rect width="1600" height="900" fill="#0d121c"/>
  <circle cx="1260" cy="180" r="210" fill="#15334a"/>
  <circle cx="250" cy="720" r="300" fill="#171e2b"/>
  <line x1="0" y1="690" x2="1600" y2="690" stroke="#50d8ff" stroke-width="5"/>
  <line x1="120" y1="690" x2="690" y2="420" stroke="#24445a" stroke-width="4"/>
  <line x1="1480" y1="690" x2="920" y2="420" stroke="#24445a" stroke-width="4"/>
  <line x1="340" y1="690" x2="760" y2="420" stroke="#24445a" stroke-width="3"/>
  <line x1="1260" y1="690" x2="850" y2="420" stroke="#24445a" stroke-width="3"/>
  <circle cx="760" cy="275" r="72" fill="#efc6a2"/>
  <rect x="685" y="345" width="170" height="260" rx="65" fill="#276584"/>
  <line x1="700" y1="405" x2="555" y2="550" stroke="#efc6a2" stroke-width="42"/>
  <line x1="835" y1="405" x2="980" y2="520" stroke="#efc6a2" stroke-width="42"/>
  <rect x="970" y="455" width="78" height="135" rx="14" fill="#151922" stroke="#ffc857" stroke-width="8"/>
  <circle cx="1008" cy="570" r="8" fill="#ffc857"/>
  <line x1="730" y1="590" x2="610" y2="765" stroke="#223447" stroke-width="54"/>
  <line x1="810" y1="590" x2="930" y2="765" stroke="#223447" stroke-width="54"/>
  <circle cx="1130" cy="655" r="46" fill="#15202b" stroke="#ff6b6b" stroke-width="6"/>
  <line x1="1100" y1="625" x2="1160" y2="685" stroke="#ff6b6b" stroke-width="7"/>
  <line x1="1160" y1="625" x2="1100" y2="685" stroke="#ff6b6b" stroke-width="7"/>
  <line x1="1038" y1="520" x2="1130" y2="640" stroke="#ffc857" stroke-width="5"/>
  <text x="92" y="130" fill="#f3f7fb" font-family="Arial" font-size="72" font-weight="700">You can't put a breakpoint</text>
  <text x="92" y="215" fill="#50d8ff" font-family="Arial" font-size="72" font-weight="700">in your floor.</text>
  <text x="1040" y="785" fill="#9eabbc" font-family="Arial" font-size="35">move · point · hope it happens again</text>
</svg>
