<svg xmlns="http://www.w3.org/2000/svg" viewBox="0 0 900 1600">
  <rect width="900" height="1600" fill="#0d121c"/>
  <circle cx="700" cy="300" r="250" fill="#15334a"/>
  <circle cx="170" cy="1320" r="300" fill="#171e2b"/>
  <text x="65" y="135" fill="#f3f7fb" font-family="Arial" font-size="70" font-weight="700">You can't put</text>
  <text x="65" y="220" fill="#f3f7fb" font-family="Arial" font-size="70" font-weight="700">a breakpoint</text>
  <text x="65" y="305" fill="#50d8ff" font-family="Arial" font-size="70" font-weight="700">in your floor.</text>
  <line x1="0" y1="1260" x2="900" y2="1260" stroke="#50d8ff" stroke-width="6"/>
  <line x1="40" y1="1260" x2="390" y2="700" stroke="#24445a" stroke-width="4"/>
  <line x1="860" y1="1260" x2="510" y2="700" stroke="#24445a" stroke-width="4"/>
  <circle cx="405" cy="590" r="68" fill="#efc6a2"/>
  <rect x="330" y="660" width="170" height="310" rx="68" fill="#276584"/>
  <line x1="345" y1="730" x2="215" y2="910" stroke="#efc6a2" stroke-width="42"/>
  <line x1="485" y1="730" x2="640" y2="875" stroke="#efc6a2" stroke-width="42"/>
  <rect x="625" y="815" width="86" height="148" rx="15" fill="#151922" stroke="#ffc857" stroke-width="8"/>
  <circle cx="668" cy="940" r="9" fill="#ffc857"/>
  <line x1="375" y1="950" x2="275" y2="1220" stroke="#223447" stroke-width="56"/>
  <line x1="455" y1="950" x2="565" y2="1220" stroke="#223447" stroke-width="56"/>
  <circle cx="710" cy="1170" r="52" fill="#15202b" stroke="#ff6b6b" stroke-width="7"/>
  <line x1="675" y1="1135" x2="745" y2="1205" stroke="#ff6b6b" stroke-width="8"/>
  <line x1="745" y1="1135" x2="675" y2="1205" stroke="#ff6b6b" stroke-width="8"/>
  <line x1="700" y1="900" x2="710" y2="1115" stroke="#ffc857" stroke-width="6"/>
  <text x="85" y="1450" fill="#9eabbc" font-family="Arial" font-size="36">move · point · hope</text>
  <text x="85" y="1500" fill="#9eabbc" font-family="Arial" font-size="36">it happens again</text>
</svg>
