<svg xmlns="http://www.w3.org/2000/svg" viewBox="0 0 800 1000">
<rect x="100" y="20" width="600" height="120" fill="#171c26" stroke="#ffc857" stroke-width="5" rx="24"/><text x="400" y="94" font-size="44" fill="#f3f7fb" font-family="sans-serif" font-weight="700" text-anchor="middle">ONE AR FEATURE</text>
<line x1="400" y1="140" x2="205" y2="275" stroke="#50d8ff" stroke-width="8"/><line x1="400" y1="140" x2="595" y2="275" stroke="#50d8ff" stroke-width="8"/>
<polygon points="205,275 220,237 244,270" fill="#50d8ff"/><polygon points="595,275 556,270 580,237" fill="#50d8ff"/>
<rect x="20" y="275" width="370" height="185" fill="#171c26" stroke="#ffc857" stroke-width="5" rx="24"/><rect x="410" y="275" width="370" height="185" fill="#171c26" stroke="#ffc857" stroke-width="5" rx="24"/>
<text x="205" y="345" font-size="40" fill="#f3f7fb" font-family="sans-serif" font-weight="700" text-anchor="middle">ARKit path</text><text x="205" y="397" font-size="27" fill="#f3f7fb" font-family="sans-serif" font-weight="700" text-anchor="middle">native classes</text><text x="205" y="431" font-size="27" fill="#f3f7fb" font-family="sans-serif" font-weight="700" text-anchor="middle">and coordinates</text>
<text x="595" y="345" font-size="40" fill="#f3f7fb" font-family="sans-serif" font-weight="700" text-anchor="middle">ARCore path</text><text x="595" y="397" font-size="27" fill="#f3f7fb" font-family="sans-serif" font-weight="700" text-anchor="middle">different classes</text><text x="595" y="431" font-size="27" fill="#f3f7fb" font-family="sans-serif" font-weight="700" text-anchor="middle">and coordinates</text>
<line x1="205" y1="460" x2="300" y2="680" stroke="#50d8ff" stroke-width="8"/><line x1="595" y1="460" x2="500" y2="680" stroke="#50d8ff" stroke-width="8"/>
<polygon points="300,680 270,653 307,638" fill="#50d8ff"/><polygon points="500,680 493,638 530,653" fill="#50d8ff"/>
<rect x="70" y="680" width="660" height="220" fill="#171c26" stroke="#ffc857" stroke-width="5" rx="24"/><text x="400" y="765" font-size="42" fill="#f3f7fb" font-family="sans-serif" font-weight="700" text-anchor="middle">BACK TO THE DEVICE</text>
<text x="400" y="825" font-size="30" fill="#f3f7fb" font-family="sans-serif" font-weight="700" text-anchor="middle">reproduce, patch, rebuild</text><text x="400" y="865" font-size="30" fill="#f3f7fb" font-family="sans-serif" font-weight="700" text-anchor="middle">then try the room again</text>
</svg>
