<svg xmlns="http://www.w3.org/2000/svg" viewBox="0 0 1200 500">
<rect x="20" y="155" width="250" height="150" fill="#171c26" stroke="#ffc857" stroke-width="5" rx="24"/><rect x="325" y="155" width="250" height="150" fill="#171c26" stroke="#ffc857" stroke-width="5" rx="24"/>
<rect x="630" y="155" width="250" height="150" fill="#171c26" stroke="#ffc857" stroke-width="5" rx="24"/><rect x="935" y="155" width="250" height="150" fill="#171c26" stroke="#ffc857" stroke-width="5" rx="24"/>
<line x1="270" y1="230" x2="325" y2="230" stroke="#50d8ff" stroke-width="8"/><line x1="575" y1="230" x2="630" y2="230" stroke="#50d8ff" stroke-width="8"/><line x1="880" y1="230" x2="935" y2="230" stroke="#50d8ff" stroke-width="8"/>
<polygon points="325,230 294,212 294,248" fill="#50d8ff"/><polygon points="630,230 599,212 599,248" fill="#50d8ff"/><polygon points="935,230 904,212 904,248" fill="#50d8ff"/>
<text x="145" y="220" font-size="43" fill="#f3f7fb" font-family="sans-serif" font-weight="700" text-anchor="middle">TAP</text><text x="145" y="268" font-size="27" fill="#f3f7fb" font-family="sans-serif" font-weight="700" text-anchor="middle">the floor</text>
<text x="450" y="220" font-size="40" fill="#f3f7fb" font-family="sans-serif" font-weight="700" text-anchor="middle">HIT TEST</text><text x="450" y="268" font-size="27" fill="#f3f7fb" font-family="sans-serif" font-weight="700" text-anchor="middle">find a plane</text>
<text x="755" y="220" font-size="43" fill="#f3f7fb" font-family="sans-serif" font-weight="700" text-anchor="middle">ANCHOR</text><text x="755" y="268" font-size="27" fill="#f3f7fb" font-family="sans-serif" font-weight="700" text-anchor="middle">fix a point</text>
<text x="1060" y="220" font-size="43" fill="#f3f7fb" font-family="sans-serif" font-weight="700" text-anchor="middle">MODEL</text><text x="1060" y="268" font-size="27" fill="#f3f7fb" font-family="sans-serif" font-weight="700" text-anchor="middle">place it</text>
</svg>
