<svg xmlns="http://www.w3.org/2000/svg" viewBox="0 0 800 1000">
<rect x="80" y="20" width="640" height="130" fill="#171c26" stroke="#ffc857" stroke-width="5" rx="24"/><text x="400" y="103" font-size="48" fill="#f3f7fb" font-family="sans-serif" font-weight="700" text-anchor="middle">ONE JAVA API</text>
<line x1="400" y1="150" x2="400" y2="260" stroke="#50d8ff" stroke-width="8"/><line x1="400" y1="150" x2="400" y2="500" stroke="#50d8ff" stroke-width="8"/><line x1="400" y1="150" x2="400" y2="740" stroke="#50d8ff" stroke-width="8"/>
<rect x="100" y="260" width="600" height="150" fill="#171c26" stroke="#ffc857" stroke-width="5" rx="24"/><rect x="100" y="500" width="600" height="150" fill="#171c26" stroke="#ffc857" stroke-width="5" rx="24"/><rect x="100" y="740" width="600" height="150" fill="#171c26" stroke="#ffc857" stroke-width="5" rx="24"/>
<text x="400" y="330" font-size="44" fill="#f3f7fb" font-family="sans-serif" font-weight="700" text-anchor="middle">ARKit</text><text x="400" y="375" font-size="27" fill="#f3f7fb" font-family="sans-serif" font-weight="700" text-anchor="middle">native iOS</text>
<text x="400" y="570" font-size="44" fill="#f3f7fb" font-family="sans-serif" font-weight="700" text-anchor="middle">ARCore</text><text x="400" y="615" font-size="27" fill="#f3f7fb" font-family="sans-serif" font-weight="700" text-anchor="middle">native Android</text>
<text x="400" y="810" font-size="40" fill="#f3f7fb" font-family="sans-serif" font-weight="700" text-anchor="middle">JavaSE simulator</text><text x="400" y="855" font-size="27" fill="#f3f7fb" font-family="sans-serif" font-weight="700" text-anchor="middle">same flow at your desk</text>
<polygon points="400,260 380,224 420,224" fill="#50d8ff"/><polygon points="400,500 380,464 420,464" fill="#50d8ff"/><polygon points="400,740 380,704 420,704" fill="#50d8ff"/>
<text x="400" y="965" font-size="31" fill="#50d8ff" font-family="sans-serif" font-weight="700" text-anchor="middle">WRITE ONCE · DEBUG THE SAME FLOW</text>
</svg>
