<svg xmlns="http://www.w3.org/2000/svg" viewBox="0 0 800 1180"><defs><linearGradient id="bg" x1="0" y1="0" x2="1" y2="1"><stop stop-color="#071427"/><stop offset="1" stop-color="#12334a"/></linearGradient><filter id="glow"><feGaussianBlur stdDeviation="10"/></filter></defs><rect width="800" height="1180" rx="34" fill="url(#bg)"/><rect x="100" y="190" width="600" height="145" rx="26" fill="#111d2d" stroke="#ff6b67" stroke-width="4"/><text x="400" y="244" text-anchor="middle" font-family="Arial,sans-serif" font-size="37" font-weight="700" fill="#f4f8fb">PASSWORD</text><text x="400" y="293" text-anchor="middle" font-family="Arial,sans-serif" font-size="24" font-weight="400" fill="#b9d4e4">interactive session</text><rect x="100" y="420" width="600" height="145" rx="26" fill="#111d2d" stroke="#ff6b67" stroke-width="4"/><text x="400" y="474" text-anchor="middle" font-family="Arial,sans-serif" font-size="37" font-weight="700" fill="#f4f8fb">TWO-FACTOR PROMPT</text><text x="400" y="523" text-anchor="middle" font-family="Arial,sans-serif" font-size="24" font-weight="400" fill="#b9d4e4">interactive session</text><line x1="400" y1="340" x2="400" y2="420" stroke="#ffad57" stroke-width="8" stroke-linecap="round"/><circle cx="400" cy="420" r="12" fill="#ffad57"/><rect x="100" y="650" width="600" height="145" rx="26" fill="#111d2d" stroke="#ff6b67" stroke-width="4"/><text x="400" y="704" text-anchor="middle" font-family="Arial,sans-serif" font-size="37" font-weight="700" fill="#f4f8fb">CHANGED LOGIN PAGE</text><text x="400" y="753" text-anchor="middle" font-family="Arial,sans-serif" font-size="24" font-weight="400" fill="#b9d4e4">interactive session</text><line x1="400" y1="570" x2="400" y2="650" stroke="#ffad57" stroke-width="8" stroke-linecap="round"/><circle cx="400" cy="650" r="12" fill="#ffad57"/><rect x="100" y="880" width="600" height="145" rx="26" fill="#111d2d" stroke="#ff6b67" stroke-width="4"/><text x="400" y="934" text-anchor="middle" font-family="Arial,sans-serif" font-size="37" font-weight="700" fill="#f4f8fb">TRY AGAIN</text><text x="400" y="983" text-anchor="middle" font-family="Arial,sans-serif" font-size="24" font-weight="400" fill="#b9d4e4">interactive session</text><line x1="400" y1="800" x2="400" y2="880" stroke="#ffad57" stroke-width="8" stroke-linecap="round"/><circle cx="400" cy="880" r="12" fill="#ffad57"/></svg>
