<svg xmlns="http://www.w3.org/2000/svg" viewBox="0 0 1200 720"><defs><linearGradient id="bg" x1="0" y1="0" x2="1" y2="1"><stop stop-color="#071427"/><stop offset="1" stop-color="#12334a"/></linearGradient><filter id="glow"><feGaussianBlur stdDeviation="10"/></filter></defs><rect width="1200" height="720" rx="34" fill="url(#bg)"/><rect x="70" y="230" width="420" height="140" rx="26" fill="#111d2d" stroke="#ff6b67" stroke-width="4"/><text x="280" y="282" text-anchor="middle" font-family="Arial,sans-serif" font-size="37" font-weight="700" fill="#f4f8fb">PASSWORD</text><text x="280" y="328" text-anchor="middle" font-family="Arial,sans-serif" font-size="24" font-weight="400" fill="#b9d4e4">interactive session</text><rect x="710" y="230" width="420" height="140" rx="26" fill="#111d2d" stroke="#ff6b67" stroke-width="4"/><text x="920" y="282" text-anchor="middle" font-family="Arial,sans-serif" font-size="37" font-weight="700" fill="#f4f8fb">TWO-FACTOR PROMPT</text><text x="920" y="328" text-anchor="middle" font-family="Arial,sans-serif" font-size="24" font-weight="400" fill="#b9d4e4">interactive session</text><rect x="710" y="500" width="420" height="140" rx="26" fill="#111d2d" stroke="#ff6b67" stroke-width="4"/><text x="920" y="552" text-anchor="middle" font-family="Arial,sans-serif" font-size="37" font-weight="700" fill="#f4f8fb">CHANGED LOGIN PAGE</text><text x="920" y="598" text-anchor="middle" font-family="Arial,sans-serif" font-size="24" font-weight="400" fill="#b9d4e4">interactive session</text><rect x="70" y="500" width="420" height="140" rx="26" fill="#111d2d" stroke="#ff6b67" stroke-width="4"/><text x="280" y="552" text-anchor="middle" font-family="Arial,sans-serif" font-size="37" font-weight="700" fill="#f4f8fb">TRY AGAIN</text><text x="280" y="598" text-anchor="middle" font-family="Arial,sans-serif" font-size="24" font-weight="400" fill="#b9d4e4">interactive session</text><line x1="490" y1="300" x2="710" y2="300" stroke="#ffad57" stroke-width="8" stroke-linecap="round"/><circle cx="710" cy="300" r="12" fill="#ffad57"/><line x1="920" y1="370" x2="920" y2="500" stroke="#ffad57" stroke-width="8" stroke-linecap="round"/><circle cx="920" cy="500" r="12" fill="#ffad57"/><line x1="710" y1="570" x2="490" y2="570" stroke="#ffad57" stroke-width="8" stroke-linecap="round"/><circle cx="490" cy="570" r="12" fill="#ffad57"/><line x1="280" y1="500" x2="280" y2="370" stroke="#ffad57" stroke-width="8" stroke-linecap="round"/><circle cx="280" cy="370" r="12" fill="#ffad57"/></svg>
