<svg xmlns="http://www.w3.org/2000/svg" viewBox="0 0 800 1180"><defs><linearGradient id="bg" x1="0" y1="0" x2="1" y2="1"><stop stop-color="#071427"/><stop offset="1" stop-color="#12334a"/></linearGradient><filter id="glow"><feGaussianBlur stdDeviation="10"/></filter></defs><rect width="800" height="1180" rx="34" fill="url(#bg)"/><text x="120" y="310" text-anchor="start" font-family="Arial,sans-serif" font-size="26" font-weight="700" fill="#50d8ff">FRAMES</text><line x1="120" y1="355" x2="720" y2="355" stroke="#50d8ff" stroke-width="8"/><rect x="111" y="338" width="18" height="34" rx="7" fill="#50d8ff"/><rect x="211" y="338" width="18" height="34" rx="7" fill="#50d8ff"/><rect x="311" y="338" width="18" height="34" rx="7" fill="#50d8ff"/><rect x="411" y="338" width="18" height="34" rx="7" fill="#50d8ff"/><rect x="511" y="338" width="18" height="34" rx="7" fill="#50d8ff"/><rect x="611" y="338" width="18" height="34" rx="7" fill="#50d8ff"/><rect x="711" y="338" width="18" height="34" rx="7" fill="#50d8ff"/><text x="120" y="500" text-anchor="start" font-family="Arial,sans-serif" font-size="26" font-weight="700" fill="#7ce6ad">PCM AUDIO</text><line x1="120" y1="545" x2="720" y2="545" stroke="#7ce6ad" stroke-width="8"/><rect x="111" y="528" width="18" height="34" rx="7" fill="#7ce6ad"/><rect x="211" y="528" width="18" height="34" rx="7" fill="#7ce6ad"/><rect x="311" y="528" width="18" height="34" rx="7" fill="#7ce6ad"/><rect x="411" y="528" width="18" height="34" rx="7" fill="#7ce6ad"/><rect x="511" y="528" width="18" height="34" rx="7" fill="#7ce6ad"/><rect x="611" y="528" width="18" height="34" rx="7" fill="#7ce6ad"/><rect x="711" y="528" width="18" height="34" rx="7" fill="#7ce6ad"/><text x="120" y="690" text-anchor="start" font-family="Arial,sans-serif" font-size="26" font-weight="700" fill="#ffad57">WORDS + CAPTIONS</text><line x1="120" y1="735" x2="720" y2="735" stroke="#ffad57" stroke-width="8"/><rect x="111" y="718" width="18" height="34" rx="7" fill="#ffad57"/><rect x="211" y="718" width="18" height="34" rx="7" fill="#ffad57"/><rect x="311" y="718" width="18" height="34" rx="7" fill="#ffad57"/><rect x="411" y="718" width="18" height="34" rx="7" fill="#ffad57"/><rect x="511" y="718" width="18" height="34" rx="7" fill="#ffad57"/><rect x="611" y="718" width="18" height="34" rx="7" fill="#ffad57"/><rect x="711" y="718" width="18" height="34" rx="7" fill="#ffad57"/><line x1="288" y1="250" x2="288" y2="800" stroke="#ffffff" stroke-width="6"/><text x="288" y="845" text-anchor="middle" font-family="Arial,sans-serif" font-size="28" font-weight="700" fill="#ffffff">one master clock</text></svg>
