<svg xmlns="http://www.w3.org/2000/svg" viewBox="0 0 1200 720"><defs><linearGradient id="bg" x1="0" y1="0" x2="1" y2="1"><stop stop-color="#071427"/><stop offset="1" stop-color="#12334a"/></linearGradient><filter id="glow"><feGaussianBlur stdDeviation="10"/></filter></defs><rect width="1200" height="720" rx="34" fill="url(#bg)"/><text x="120" y="220" text-anchor="start" font-family="Arial,sans-serif" font-size="26" font-weight="700" fill="#50d8ff">FRAMES</text><line x1="120" y1="265" x2="1120" y2="265" stroke="#50d8ff" stroke-width="8"/><rect x="111" y="248" width="18" height="34" rx="7" fill="#50d8ff"/><rect x="277" y="248" width="18" height="34" rx="7" fill="#50d8ff"/><rect x="444" y="248" width="18" height="34" rx="7" fill="#50d8ff"/><rect x="611" y="248" width="18" height="34" rx="7" fill="#50d8ff"/><rect x="777" y="248" width="18" height="34" rx="7" fill="#50d8ff"/><rect x="944" y="248" width="18" height="34" rx="7" fill="#50d8ff"/><rect x="1111" y="248" width="18" height="34" rx="7" fill="#50d8ff"/><text x="120" y="350" text-anchor="start" font-family="Arial,sans-serif" font-size="26" font-weight="700" fill="#7ce6ad">PCM AUDIO</text><line x1="120" y1="395" x2="1120" y2="395" stroke="#7ce6ad" stroke-width="8"/><rect x="111" y="378" width="18" height="34" rx="7" fill="#7ce6ad"/><rect x="277" y="378" width="18" height="34" rx="7" fill="#7ce6ad"/><rect x="444" y="378" width="18" height="34" rx="7" fill="#7ce6ad"/><rect x="611" y="378" width="18" height="34" rx="7" fill="#7ce6ad"/><rect x="777" y="378" width="18" height="34" rx="7" fill="#7ce6ad"/><rect x="944" y="378" width="18" height="34" rx="7" fill="#7ce6ad"/><rect x="1111" y="378" width="18" height="34" rx="7" fill="#7ce6ad"/><text x="120" y="480" text-anchor="start" font-family="Arial,sans-serif" font-size="26" font-weight="700" fill="#ffad57">WORDS + CAPTIONS</text><line x1="120" y1="525" x2="1120" y2="525" stroke="#ffad57" stroke-width="8"/><rect x="111" y="508" width="18" height="34" rx="7" fill="#ffad57"/><rect x="277" y="508" width="18" height="34" rx="7" fill="#ffad57"/><rect x="444" y="508" width="18" height="34" rx="7" fill="#ffad57"/><rect x="611" y="508" width="18" height="34" rx="7" fill="#ffad57"/><rect x="777" y="508" width="18" height="34" rx="7" fill="#ffad57"/><rect x="944" y="508" width="18" height="34" rx="7" fill="#ffad57"/><rect x="1111" y="508" width="18" height="34" rx="7" fill="#ffad57"/><line x1="400" y1="160" x2="400" y2="590" stroke="#ffffff" stroke-width="6"/><text x="400" y="635" text-anchor="middle" font-family="Arial,sans-serif" font-size="28" font-weight="700" fill="#ffffff">one master clock</text></svg>
