<svg xmlns="http://www.w3.org/2000/svg" viewBox="0 0 1200 720"><defs><linearGradient id="bg" x1="0" y1="0" x2="1" y2="1"><stop stop-color="#071427"/><stop offset="1" stop-color="#12334a"/></linearGradient><filter id="glow"><feGaussianBlur stdDeviation="10"/></filter></defs><rect width="1200" height="720" rx="34" fill="url(#bg)"/><rect x="325" y="180" width="105" height="105" fill="none" stroke="#50d8ff" stroke-width="5"/><rect x="430" y="180" width="105" height="105" fill="none" stroke="#50d8ff" stroke-width="5"/><rect x="640" y="180" width="105" height="105" fill="none" stroke="#50d8ff" stroke-width="5"/><rect x="745" y="180" width="105" height="105" fill="none" stroke="#50d8ff" stroke-width="5"/><rect x="220" y="285" width="105" height="105" fill="none" stroke="#50d8ff" stroke-width="5"/><rect x="325" y="285" width="105" height="105" fill="none" stroke="#50d8ff" stroke-width="5"/><rect x="535" y="285" width="105" height="105" fill="none" stroke="#50d8ff" stroke-width="5"/><rect x="640" y="285" width="105" height="105" fill="none" stroke="#50d8ff" stroke-width="5"/><rect x="850" y="285" width="105" height="105" fill="none" stroke="#50d8ff" stroke-width="5"/><rect x="220" y="390" width="105" height="105" fill="none" stroke="#50d8ff" stroke-width="5"/><rect x="430" y="390" width="105" height="105" fill="none" stroke="#50d8ff" stroke-width="5"/><rect x="535" y="390" width="105" height="105" fill="none" stroke="#50d8ff" stroke-width="5"/><rect x="745" y="390" width="105" height="105" fill="none" stroke="#50d8ff" stroke-width="5"/><rect x="850" y="390" width="105" height="105" fill="none" stroke="#50d8ff" stroke-width="5"/><rect x="325" y="495" width="105" height="105" fill="none" stroke="#50d8ff" stroke-width="5"/><rect x="430" y="495" width="105" height="105" fill="none" stroke="#50d8ff" stroke-width="5"/><rect x="640" y="495" width="105" height="105" fill="none" stroke="#50d8ff" stroke-width="5"/><rect x="745" y="495" width="105" height="105" fill="none" stroke="#50d8ff" stroke-width="5"/><rect x="220" y="600" width="105" height="105" fill="none" stroke="#50d8ff" stroke-width="5"/><rect x="325" y="600" width="105" height="105" fill="none" stroke="#50d8ff" stroke-width="5"/><rect x="535" y="600" width="105" height="105" fill="none" stroke="#50d8ff" stroke-width="5"/><rect x="640" y="600" width="105" height="105" fill="none" stroke="#50d8ff" stroke-width="5"/><rect x="850" y="600" width="105" height="105" fill="none" stroke="#50d8ff" stroke-width="5"/><text x="325" y="600" text-anchor="middle" font-family="Arial,sans-serif" font-size="28" font-weight="700" fill="#ffd27c">spawn</text></svg>
