<svg xmlns="http://www.w3.org/2000/svg" viewBox="0 0 800 1180"><defs><linearGradient id="bg" x1="0" y1="0" x2="1" y2="1"><stop stop-color="#071427"/><stop offset="1" stop-color="#12334a"/></linearGradient><filter id="glow"><feGaussianBlur stdDeviation="10"/></filter></defs><rect width="800" height="1180" rx="34" fill="url(#bg)"/><rect x="200" y="230" width="100" height="100" fill="none" stroke="#50d8ff" stroke-width="5"/><rect x="300" y="230" width="100" height="100" fill="none" stroke="#50d8ff" stroke-width="5"/><rect x="500" y="230" width="100" height="100" fill="none" stroke="#50d8ff" stroke-width="5"/><rect x="600" y="230" width="100" height="100" fill="none" stroke="#50d8ff" stroke-width="5"/><rect x="100" y="330" width="100" height="100" fill="none" stroke="#50d8ff" stroke-width="5"/><rect x="200" y="330" width="100" height="100" fill="none" stroke="#50d8ff" stroke-width="5"/><rect x="400" y="330" width="100" height="100" fill="none" stroke="#50d8ff" stroke-width="5"/><rect x="500" y="330" width="100" height="100" fill="none" stroke="#50d8ff" stroke-width="5"/><rect x="100" y="430" width="100" height="100" fill="none" stroke="#50d8ff" stroke-width="5"/><rect x="300" y="430" width="100" height="100" fill="none" stroke="#50d8ff" stroke-width="5"/><rect x="400" y="430" width="100" height="100" fill="none" stroke="#50d8ff" stroke-width="5"/><rect x="600" y="430" width="100" height="100" fill="none" stroke="#50d8ff" stroke-width="5"/><rect x="200" y="530" width="100" height="100" fill="none" stroke="#50d8ff" stroke-width="5"/><rect x="300" y="530" width="100" height="100" fill="none" stroke="#50d8ff" stroke-width="5"/><rect x="500" y="530" width="100" height="100" fill="none" stroke="#50d8ff" stroke-width="5"/><rect x="600" y="530" width="100" height="100" fill="none" stroke="#50d8ff" stroke-width="5"/><rect x="100" y="630" width="100" height="100" fill="none" stroke="#50d8ff" stroke-width="5"/><rect x="200" y="630" width="100" height="100" fill="none" stroke="#50d8ff" stroke-width="5"/><rect x="400" y="630" width="100" height="100" fill="none" stroke="#50d8ff" stroke-width="5"/><rect x="500" y="630" width="100" height="100" fill="none" stroke="#50d8ff" stroke-width="5"/><text x="200" y="630" text-anchor="middle" font-family="Arial,sans-serif" font-size="28" font-weight="700" fill="#ffd27c">spawn</text></svg>
